<?xml version="1.0" encoding="UTF-8" standalone="no"?>
<!DOCTYPE svg PUBLIC "-//W3C//DTD SVG 1.1//EN" "http://www.w3.org/Graphics/SVG/1.1/DTD/svg11.dtd">
<svg version="1.1" xmlns="http://www.w3.org/2000/svg" xmlns:xlink="http://www.w3.org/1999/xlink" preserveAspectRatio="xMidYMid meet" viewBox="0 0 640 640" width="640" height="640"><defs><path d="" id="fmlr3S9q7"></path><path d="M448.44 325.51C456.14 320.35 466.41 321.36 472.95 327.93C476.7 331.7 470.76 325.74 473.03 328.01C483.02 338.06 482.16 354.54 471.16 363.48C462.17 370.8 439.68 389.09 403.7 418.36C380.06 437.64 365.29 449.7 359.38 454.52C344.04 467.03 322.11 467.34 306.42 455.26C298.99 449.54 280.42 435.24 250.7 412.36C219.34 386.33 199.74 370.06 191.9 363.56C181.05 354.54 180.27 338.16 190.22 328.16C192.51 325.85 186.07 332.33 189.67 328.72C196.65 321.69 207.64 320.6 215.87 326.12C231.03 336.28 260.92 356.31 275.72 366.23C282.95 371.08 292.73 366.46 293.58 357.8C297.16 321.42 306.65 225.1 310.39 187.14C311.02 180.75 316.39 175.88 322.81 175.88C328.55 175.88 334.44 175.88 340.18 175.88C346.61 175.88 351.98 180.75 352.63 187.14C356.44 225.1 366.23 322.49 369.91 359.14C370.72 367.2 379.83 371.49 386.56 366.98C401.58 356.91 433.09 335.79 448.44 325.51Z" id="a10CMa0aPy"></path></defs><g><g><g><g><use xlink:href="#fmlr3S9q7" opacity="1" fill-opacity="0" stroke="#000000" stroke-width="1" stroke-opacity="1"></use></g></g><g><use xlink:href="#a10CMa0aPy" opacity="1" fill="#ffffff" fill-opacity="1"></use><g><use xlink:href="#a10CMa0aPy" opacity="1" fill-opacity="0" stroke="#242424" stroke-width="6" stroke-opacity="1"></use></g></g></g></g></svg>