<?xml version="1.0" encoding="UTF-8" standalone="no"?>
<!DOCTYPE svg PUBLIC "-//W3C//DTD SVG 1.1//EN" "http://www.w3.org/Graphics/SVG/1.1/DTD/svg11.dtd">
<svg version="1.1" xmlns="http://www.w3.org/2000/svg" xmlns:xlink="http://www.w3.org/1999/xlink" preserveAspectRatio="xMidYMid meet" viewBox="0 0 640 640" width="640" height="640"><defs><path d="" id="fmlr3S9q7"></path><path d="M326.11 203.18C331.27 195.48 330.25 185.2 323.68 178.67C319.91 174.92 325.88 180.85 323.6 178.59C313.56 168.59 297.08 169.46 288.13 180.45C280.82 189.45 262.52 211.94 233.26 247.92C213.97 271.55 201.92 286.33 197.1 292.23C184.58 307.57 184.27 329.51 196.35 345.2C202.07 352.63 216.37 371.2 239.26 400.92C265.29 432.28 281.55 451.87 288.06 459.71C297.07 470.57 313.46 471.35 323.46 461.4C325.76 459.1 319.29 465.54 322.9 461.95C329.92 454.96 331.01 443.98 325.5 435.75C315.33 420.58 295.31 390.7 285.38 375.89C280.54 368.67 285.16 358.89 293.82 358.04C330.2 354.45 426.52 344.97 464.48 341.23C470.86 340.6 475.73 335.23 475.73 328.81C475.73 323.07 475.73 317.17 475.73 311.43C475.73 305.01 470.87 299.63 464.48 298.99C426.52 295.18 329.13 285.39 292.48 281.71C284.42 280.9 280.13 271.79 284.64 265.06C294.71 250.03 315.82 218.52 326.11 203.18Z" id="c2SiwhHrtS"></path></defs><g><g><g><g><use xlink:href="#fmlr3S9q7" opacity="1" fill-opacity="0" stroke="#000000" stroke-width="1" stroke-opacity="1"></use></g></g><g><use xlink:href="#c2SiwhHrtS" opacity="1" fill="#ffffff" fill-opacity="1"></use><g><use xlink:href="#c2SiwhHrtS" opacity="1" fill-opacity="0" stroke="#242424" stroke-width="6" stroke-opacity="1"></use></g></g></g></g></svg>