<?xml version="1.0" encoding="UTF-8" standalone="no"?>
<!DOCTYPE svg PUBLIC "-//W3C//DTD SVG 1.1//EN" "http://www.w3.org/Graphics/SVG/1.1/DTD/svg11.dtd">
<svg version="1.1" xmlns="http://www.w3.org/2000/svg" xmlns:xlink="http://www.w3.org/1999/xlink" preserveAspectRatio="xMidYMid meet" viewBox="0 0 640 640" width="640" height="640"><defs><path d="" id="fmlr3S9q7"></path><path d="M350.38 203.26C355.54 195.56 354.52 185.28 347.95 178.75C344.18 175 350.15 180.93 347.87 178.67C337.82 168.67 321.34 169.54 312.4 180.53C305.08 189.53 286.79 212.02 257.52 248C238.24 271.63 226.19 286.41 221.36 292.31C208.85 307.65 208.54 329.59 220.62 345.28C226.34 352.71 240.64 371.28 263.52 401C289.55 432.36 305.82 451.95 312.33 459.79C321.34 470.65 337.72 471.43 347.72 461.48C350.03 459.18 343.55 465.62 347.17 462.03C354.19 455.04 355.28 444.06 349.76 435.83C339.6 420.66 319.57 390.78 309.65 375.97C304.81 368.75 309.42 358.97 318.08 358.12C354.47 354.53 450.78 345.05 488.74 341.31C495.13 340.68 500 335.31 500 328.89C500 323.15 500 317.25 500 311.51C500 305.09 495.13 299.71 488.74 299.07C450.78 295.26 353.39 285.47 316.74 281.79C308.68 280.98 304.39 271.87 308.9 265.14C318.97 250.11 340.09 218.6 350.38 203.26Z" id="b3zNwX5pTc"></path></defs><g><g><g><g><use xlink:href="#fmlr3S9q7" opacity="1" fill-opacity="0" stroke="#000000" stroke-width="1" stroke-opacity="1"></use></g></g><g><use xlink:href="#b3zNwX5pTc" opacity="1" fill="#636b63" fill-opacity="1"></use><g><use xlink:href="#b3zNwX5pTc" opacity="1" fill-opacity="0" stroke="#242424" stroke-width="6" stroke-opacity="1"></use></g></g></g></g></svg>