<?xml version="1.0" encoding="UTF-8" standalone="no"?>
<!DOCTYPE svg PUBLIC "-//W3C//DTD SVG 1.1//EN" "http://www.w3.org/Graphics/SVG/1.1/DTD/svg11.dtd">
<svg version="1.1" xmlns="http://www.w3.org/2000/svg" xmlns:xlink="http://www.w3.org/1999/xlink" preserveAspectRatio="xMidYMid meet" viewBox="0 0 640 640" width="640" height="640"><defs><path d="" id="fmlr3S9q7"></path><path d="M337.12 203.18C331.96 195.48 332.98 185.2 339.55 178.67C343.32 174.92 337.35 180.85 339.63 178.59C349.68 168.59 366.16 169.46 375.1 180.45C382.42 189.45 400.71 211.94 429.98 247.92C449.26 271.55 461.31 286.33 466.13 292.23C478.65 307.57 478.96 329.51 466.88 345.2C461.16 352.63 446.86 371.2 423.98 400.92C397.95 432.28 381.68 451.87 375.17 459.71C366.16 470.57 349.78 471.35 339.78 461.4C337.47 459.1 343.95 465.54 340.33 461.95C333.31 454.96 332.22 443.98 337.74 435.75C347.9 420.58 367.93 390.7 377.85 375.89C382.69 368.67 378.07 358.89 369.42 358.04C333.03 354.45 236.72 344.97 198.76 341.23C192.37 340.6 187.5 335.23 187.5 328.81C187.5 323.07 187.5 317.17 187.5 311.43C187.5 305.01 192.36 299.63 198.76 298.99C236.72 295.18 334.1 285.39 370.76 281.71C378.82 280.9 383.11 271.79 378.6 265.06C368.52 250.03 347.41 218.52 337.12 203.18Z" id="c6rIlYMRNw"></path></defs><g><g><g><g><use xlink:href="#fmlr3S9q7" opacity="1" fill-opacity="0" stroke="#000000" stroke-width="1" stroke-opacity="1"></use></g></g><g><use xlink:href="#c6rIlYMRNw" opacity="1" fill="#ffffff" fill-opacity="1"></use><g><use xlink:href="#c6rIlYMRNw" opacity="1" fill-opacity="0" stroke="#242424" stroke-width="6" stroke-opacity="1"></use></g></g></g></g></svg>