<?xml version="1.0" encoding="UTF-8" standalone="no"?>
<!DOCTYPE svg PUBLIC "-//W3C//DTD SVG 1.1//EN" "http://www.w3.org/Graphics/SVG/1.1/DTD/svg11.dtd">
<svg version="1.1" xmlns="http://www.w3.org/2000/svg" xmlns:xlink="http://www.w3.org/1999/xlink" preserveAspectRatio="xMidYMid meet" viewBox="0 0 640 640" width="640" height="640"><defs><path d="M372.52 369.02C313.98 427.56 218.93 427.56 160.39 369.02C101.85 310.48 101.85 215.43 160.39 156.89C218.93 98.35 313.98 98.35 372.52 156.89C431.06 215.43 431.06 310.48 372.52 369.02Z" id="eQiH2oNEV"></path><path d="M544.65 488.33C552.46 496.14 552.46 508.8 544.65 516.61C537.83 523.43 531.52 529.74 524.71 536.56C516.9 544.37 504.23 544.37 496.42 536.56C466.66 506.79 391.51 431.65 361.75 401.88C353.94 394.07 353.94 381.41 361.75 373.6C368.57 366.78 374.88 360.47 381.7 353.66C389.51 345.84 402.17 345.84 409.98 353.66C439.74 383.42 514.89 458.57 544.65 488.33Z" id="cVZuArv83"></path></defs><g><g><g><g><g><use xlink:href="#eQiH2oNEV" opacity="1" fill-opacity="0" stroke="#ffffff" stroke-width="60" stroke-opacity="1"></use></g></g><g><use xlink:href="#cVZuArv83" opacity="1" fill="#ffffff" fill-opacity="1"></use></g></g></g></g></svg>