<?xml version="1.0" encoding="UTF-8" standalone="no"?>
<!DOCTYPE svg PUBLIC "-//W3C//DTD SVG 1.1//EN" "http://www.w3.org/Graphics/SVG/1.1/DTD/svg11.dtd">
<svg version="1.1" xmlns="http://www.w3.org/2000/svg" xmlns:xlink="http://www.w3.org/1999/xlink" preserveAspectRatio="xMidYMid meet" viewBox="0 0 640 640" width="640" height="640"><defs><path d="M350.8 120.04L351.19 120.09L351.56 120.16L351.92 120.25L352.27 120.36L352.61 120.49L352.94 120.64L353.26 120.8L353.58 120.98L353.88 121.18L354.17 121.4L354.45 121.63L354.73 121.87L355 122.14L355.26 122.41L355.51 122.7L355.76 123.01L356 123.33L356.23 123.66L356.46 124.01L356.68 124.37L356.89 124.74L357.1 125.12L357.31 125.51L357.51 125.92L357.7 126.33L357.9 126.76L358.08 127.19L358.27 127.64L358.45 128.09L358.63 128.55L358.81 129.02L358.98 129.5L359.15 129.98L359.32 130.47L359.49 130.97L359.66 131.48L359.83 131.99L360 132.5L368.65 164.94L371.36 165.78L377.36 167.91L383.25 170.27L389.03 172.85L394.68 175.64L395.14 175.89L424.3 159.01L424.78 158.77L425.26 158.53L425.74 158.29L426.21 158.06L426.68 157.83L427.14 157.61L427.6 157.4L428.06 157.19L428.51 156.99L428.96 156.8L429.41 156.62L429.85 156.44L430.28 156.28L430.72 156.12L431.14 155.98L431.57 155.84L431.98 155.72L432.4 155.61L432.81 155.52L433.21 155.43L433.61 155.36L434.01 155.3L434.4 155.26L434.78 155.23L435.16 155.22L435.54 155.23L435.91 155.25L436.27 155.28L436.63 155.34L436.98 155.41L437.33 155.5L437.68 155.62L438.01 155.75L438.34 155.9L438.67 156.07L438.99 156.26L439.3 156.47L439.61 156.71L439.91 156.97L440.21 157.25L482.63 199.67L482.92 199.97L483.18 200.27L483.42 200.59L483.63 200.9L483.83 201.23L484.01 201.56L484.17 201.9L484.31 202.25L484.43 202.6L484.53 202.96L484.62 203.32L484.68 203.69L484.73 204.07L484.76 204.45L484.78 204.84L484.78 205.23L484.76 205.62L484.73 206.02L484.68 206.43L484.62 206.84L484.54 207.25L484.45 207.67L484.35 208.09L484.23 208.51L484.1 208.94L483.96 209.37L483.8 209.8L483.64 210.23L483.46 210.67L483.27 211.11L483.07 211.55L482.86 211.99L482.64 212.44L482.42 212.89L482.18 213.33L481.93 213.78L481.68 214.23L481.41 214.68L481.14 215.13L480.87 215.58L464.02 244.69L464.36 245.32L467.15 250.97L469.73 256.75L472.09 262.64L474.22 268.64L475.06 271.35L507.5 280L508.01 280.12L508.52 280.25L509.03 280.38L509.53 280.52L510.02 280.66L510.5 280.81L510.98 280.96L511.45 281.12L511.91 281.29L512.36 281.46L512.81 281.64L513.24 281.82L513.67 282.01L514.08 282.21L514.49 282.41L514.88 282.62L515.26 282.84L515.63 283.06L515.99 283.29L516.34 283.53L516.67 283.78L516.99 284.03L517.3 284.29L517.59 284.56L517.86 284.83L518.13 285.12L518.37 285.41L518.6 285.71L518.82 286.02L519.02 286.33L519.2 286.66L519.36 286.99L519.51 287.34L519.64 287.69L519.75 288.05L519.84 288.42L519.91 288.8L519.96 289.19L519.99 289.59L520 290L520 350L519.99 350.41L519.96 350.8L519.91 351.19L519.84 351.56L519.75 351.92L519.64 352.27L519.51 352.61L519.36 352.94L519.2 353.26L519.02 353.58L518.82 353.88L518.6 354.17L518.37 354.45L518.13 354.73L517.86 355L517.59 355.26L517.3 355.51L516.99 355.76L516.67 356L516.34 356.23L515.99 356.46L515.63 356.68L515.26 356.89L514.88 357.1L514.49 357.31L514.08 357.51L513.67 357.7L513.24 357.9L512.81 358.08L512.36 358.27L511.91 358.45L511.45 358.63L510.98 358.81L510.5 358.98L510.02 359.15L509.53 359.32L509.03 359.49L508.52 359.66L508.01 359.83L507.5 360L475.06 368.65L474.22 371.36L472.09 377.36L469.73 383.25L467.15 389.03L464.36 394.68L464.05 395.25L480.87 424.3L481.14 424.75L481.41 425.2L481.68 425.65L481.93 426.1L482.18 426.55L482.42 426.99L482.64 427.44L482.86 427.89L483.07 428.33L483.27 428.77L483.46 429.21L483.64 429.65L483.8 430.08L483.96 430.51L484.1 430.94L484.23 431.37L484.35 431.79L484.45 432.21L484.54 432.63L484.62 433.04L484.68 433.45L484.73 433.86L484.76 434.26L484.78 434.65L484.78 435.04L484.76 435.43L484.73 435.81L484.68 436.19L484.62 436.56L484.53 436.92L484.43 437.28L484.31 437.63L484.17 437.98L484.01 438.32L483.83 438.65L483.63 438.98L483.42 439.3L483.18 439.61L482.92 439.91L482.63 440.21L440.21 482.63L439.91 482.92L439.61 483.17L439.3 483.41L438.99 483.62L438.67 483.81L438.34 483.99L438.01 484.14L437.68 484.27L437.33 484.38L436.98 484.47L436.63 484.54L436.27 484.6L435.91 484.63L435.54 484.65L435.16 484.66L434.78 484.65L434.4 484.62L434.01 484.58L433.61 484.52L433.21 484.45L432.81 484.37L432.4 484.27L431.98 484.16L431.57 484.04L431.14 483.9L430.72 483.76L430.28 483.6L429.85 483.44L429.41 483.26L428.96 483.08L428.51 482.89L428.06 482.69L427.6 482.48L427.14 482.27L426.68 482.05L426.21 481.82L425.74 481.59L425.26 481.35L424.78 481.11L424.3 480.87L395.25 464.05L394.68 464.36L389.03 467.15L383.25 469.73L377.36 472.09L371.36 474.22L368.65 475.06L360 507.5L359.83 508.01L359.66 508.52L359.49 509.03L359.32 509.53L359.15 510.02L358.98 510.5L358.81 510.98L358.63 511.45L358.45 511.91L358.27 512.36L358.08 512.81L357.9 513.24L357.7 513.67L357.51 514.08L357.31 514.49L357.1 514.88L356.89 515.26L356.68 515.63L356.46 515.99L356.23 516.34L356 516.67L355.76 516.99L355.51 517.3L355.26 517.59L355 517.86L354.73 518.13L354.45 518.37L354.17 518.6L353.88 518.82L353.58 519.02L353.26 519.2L352.94 519.36L352.61 519.51L352.27 519.64L351.92 519.75L351.56 519.84L351.19 519.91L350.8 519.96L350.41 519.99L350 520L290 520L289.59 519.99L289.19 519.96L288.8 519.91L288.42 519.84L288.05 519.75L287.69 519.64L287.34 519.51L286.99 519.36L286.66 519.2L286.33 519.02L286.02 518.82L285.71 518.6L285.41 518.37L285.12 518.13L284.83 517.86L284.56 517.59L284.29 517.3L284.03 516.99L283.78 516.67L283.53 516.34L283.29 515.99L283.06 515.63L282.84 515.26L282.62 514.88L282.41 514.49L282.21 514.08L282.01 513.67L281.82 513.24L281.64 512.81L281.46 512.36L281.29 511.91L281.12 511.45L280.96 510.98L280.81 510.5L280.66 510.02L280.52 509.53L280.38 509.03L280.25 508.52L280.12 508.01L280 507.5L271.35 475.06L268.64 474.22L262.64 472.09L256.75 469.73L250.97 467.15L245.32 464.36L244.64 463.99L215.7 480.75L215.25 481.03L214.8 481.3L214.35 481.56L213.9 481.81L213.45 482.06L213.01 482.3L212.56 482.53L212.11 482.74L211.67 482.95L211.23 483.15L210.79 483.34L210.35 483.52L209.92 483.69L209.49 483.84L209.06 483.98L208.63 484.11L208.21 484.23L207.79 484.33L207.37 484.42L206.96 484.5L206.55 484.56L206.14 484.61L205.74 484.64L205.35 484.66L204.96 484.66L204.57 484.64L204.19 484.61L203.81 484.56L203.44 484.5L203.08 484.41L202.72 484.31L202.37 484.19L202.02 484.05L201.68 483.89L201.35 483.71L201.02 483.52L200.7 483.3L200.39 483.06L200.09 482.8L199.79 482.52L157.37 440.09L157.08 439.79L156.83 439.49L156.59 439.18L156.38 438.87L156.19 438.55L156.01 438.22L155.86 437.89L155.73 437.56L155.62 437.21L155.53 436.87L155.46 436.51L155.4 436.15L155.37 435.79L155.35 435.42L155.34 435.04L155.35 434.66L155.38 434.28L155.42 433.89L155.48 433.49L155.55 433.09L155.63 432.69L155.73 432.28L155.84 431.87L155.96 431.45L156.1 431.02L156.24 430.6L156.4 430.16L156.56 429.73L156.74 429.29L156.92 428.84L157.11 428.39L157.31 427.94L157.52 427.48L157.73 427.02L157.95 426.56L158.18 426.09L158.41 425.62L158.65 425.14L158.89 424.66L159.13 424.18L175.92 395.19L175.64 394.68L172.85 389.03L170.27 383.25L167.91 377.36L165.78 371.36L164.94 368.65L132.5 360L131.99 359.83L131.48 359.66L130.97 359.49L130.47 359.32L129.98 359.15L129.5 358.98L129.02 358.81L128.55 358.63L128.09 358.45L127.64 358.27L127.19 358.08L126.76 357.9L126.33 357.7L125.92 357.51L125.51 357.31L125.12 357.1L124.74 356.89L124.37 356.68L124.01 356.46L123.66 356.23L123.33 356L123.01 355.76L122.7 355.51L122.41 355.26L122.14 355L121.87 354.73L121.63 354.45L121.4 354.17L121.18 353.88L120.98 353.58L120.8 353.26L120.64 352.94L120.49 352.61L120.36 352.27L120.25 351.92L120.16 351.56L120.09 351.19L120.04 350.8L120.01 350.41L120 350L120 290L120.01 289.59L120.04 289.19L120.09 288.8L120.16 288.42L120.25 288.05L120.36 287.69L120.49 287.34L120.64 286.99L120.8 286.66L120.98 286.33L121.18 286.02L121.4 285.71L121.63 285.41L121.87 285.12L122.14 284.83L122.41 284.56L122.7 284.29L123.01 284.03L123.33 283.78L123.66 283.53L124.01 283.29L124.37 283.06L124.74 282.84L125.12 282.62L125.51 282.41L125.92 282.21L126.33 282.01L126.76 281.82L127.19 281.64L127.64 281.46L128.09 281.29L128.55 281.12L129.02 280.96L129.5 280.81L129.98 280.66L130.47 280.52L130.97 280.38L131.48 280.25L131.99 280.12L132.5 280L164.94 271.35L165.78 268.64L167.91 262.64L170.27 256.75L172.85 250.97L175.64 245.32L175.95 244.75L159.13 215.7L158.89 215.22L158.65 214.74L158.41 214.26L158.18 213.79L157.95 213.32L157.73 212.86L157.52 212.4L157.31 211.94L157.11 211.49L156.92 211.04L156.74 210.59L156.56 210.15L156.4 209.72L156.24 209.28L156.1 208.86L155.96 208.43L155.84 208.02L155.73 207.6L155.63 207.19L155.55 206.79L155.48 206.39L155.42 205.99L155.38 205.6L155.35 205.22L155.34 204.84L155.35 204.46L155.37 204.09L155.4 203.73L155.46 203.37L155.53 203.02L155.62 202.67L155.73 202.32L155.86 201.99L156.01 201.66L156.19 201.33L156.38 201.01L156.59 200.7L156.83 200.39L157.08 200.09L157.37 199.79L199.79 157.37L200.09 157.08L200.39 156.82L200.7 156.58L201.02 156.37L201.35 156.17L201.68 155.99L202.02 155.83L202.37 155.69L202.72 155.57L203.08 155.47L203.44 155.38L203.81 155.32L204.19 155.27L204.57 155.24L204.96 155.22L205.35 155.22L205.74 155.24L206.14 155.27L206.55 155.32L206.96 155.38L207.37 155.46L207.79 155.55L208.21 155.65L208.63 155.77L209.06 155.9L209.49 156.04L209.92 156.2L210.35 156.36L210.79 156.54L211.23 156.73L211.67 156.93L212.11 157.14L212.56 157.36L213.01 157.58L213.45 157.82L213.9 158.07L214.35 158.32L214.8 158.59L215.25 158.86L215.7 159.13L244.75 175.95L245.32 175.64L250.97 172.85L256.75 170.27L262.64 167.91L268.64 165.78L271.35 164.94L280 132.5L280.12 131.99L280.25 131.48L280.38 130.97L280.52 130.47L280.66 129.98L280.81 129.5L280.96 129.02L281.12 128.55L281.29 128.09L281.46 127.64L281.64 127.19L281.82 126.76L282.01 126.33L282.21 125.92L282.41 125.51L282.62 125.12L282.84 124.74L283.06 124.37L283.29 124.01L283.53 123.66L283.78 123.33L284.03 123.01L284.29 122.7L284.56 122.41L284.83 122.14L285.12 121.87L285.41 121.63L285.71 121.4L286.02 121.18L286.33 120.98L286.66 120.8L286.99 120.64L287.34 120.49L287.69 120.36L288.05 120.25L288.42 120.16L288.8 120.09L289.19 120.04L289.59 120.01L290 120L350 120L350.41 120.01L350.8 120.04ZM312.82 232.79L309.29 233.15L305.81 233.65L302.37 234.28L298.97 235.04L295.63 235.94L292.34 236.96L289.11 238.11L285.94 239.38L282.83 240.76L279.79 242.27L276.81 243.88L273.91 245.61L271.08 247.44L268.32 249.38L265.65 251.42L263.06 253.56L260.55 255.8L258.13 258.13L255.8 260.55L253.56 263.06L251.42 265.65L249.38 268.32L247.44 271.08L245.61 273.91L243.88 276.81L242.27 279.79L240.76 282.83L239.38 285.94L238.11 289.11L236.96 292.34L235.94 295.63L235.04 298.97L234.28 302.37L233.65 305.81L233.15 309.29L232.79 312.82L232.57 316.39L232.5 320L232.57 323.61L232.79 327.18L233.15 330.71L233.65 334.19L234.28 337.63L235.04 341.03L235.94 344.37L236.96 347.66L238.11 350.89L239.38 354.06L240.76 357.17L242.27 360.21L243.88 363.19L245.61 366.09L247.44 368.92L249.38 371.68L251.42 374.35L253.56 376.94L255.8 379.45L258.13 381.87L260.55 384.2L263.06 386.44L265.65 388.58L268.32 390.62L271.08 392.56L273.91 394.39L276.81 396.12L279.79 397.73L282.83 399.24L285.94 400.62L289.11 401.89L292.34 403.04L295.63 404.06L298.97 404.96L302.37 405.72L305.81 406.35L309.29 406.85L312.82 407.21L316.39 407.43L320 407.5L323.61 407.43L327.18 407.21L330.71 406.85L334.19 406.35L337.63 405.72L341.03 404.96L344.37 404.06L347.66 403.04L350.89 401.89L354.06 400.62L357.17 399.24L360.21 397.73L363.19 396.12L366.09 394.39L368.92 392.56L371.68 390.62L374.35 388.58L376.94 386.44L379.45 384.2L381.87 381.87L384.2 379.45L386.44 376.94L388.58 374.35L390.62 371.68L392.56 368.92L394.39 366.09L396.12 363.19L397.73 360.21L399.24 357.17L400.62 354.06L401.89 350.89L403.04 347.66L404.06 344.37L404.96 341.03L405.72 337.63L406.35 334.19L406.85 330.71L407.21 327.18L407.43 323.61L407.5 320L407.43 316.39L407.21 312.82L406.85 309.29L406.35 305.81L405.72 302.37L404.96 298.97L404.06 295.63L403.04 292.34L401.89 289.11L400.62 285.94L399.24 282.83L397.73 279.79L396.12 276.81L394.39 273.91L392.56 271.08L390.62 268.32L388.58 265.65L386.44 263.06L384.2 260.55L381.87 258.13L379.45 255.8L376.94 253.56L374.35 251.42L371.68 249.38L368.92 247.44L366.09 245.61L363.19 243.88L360.21 242.27L357.17 240.76L354.06 239.38L350.89 238.11L347.66 236.96L344.37 235.94L341.03 235.04L337.63 234.28L334.19 233.65L330.71 233.15L327.18 232.79L323.61 232.57L320 232.5L316.39 232.57L312.82 232.79Z" id="dEu2fZ7tZ"></path></defs><g><g><g><use xlink:href="#dEu2fZ7tZ" opacity="1" fill="#dddddd" fill-opacity="1"></use><g><use xlink:href="#dEu2fZ7tZ" opacity="1" fill-opacity="0" stroke="#484848" stroke-width="10" stroke-opacity="1"></use></g></g></g></g></svg>