<?xml version="1.0" encoding="UTF-8" standalone="no"?>
<!DOCTYPE svg PUBLIC "-//W3C//DTD SVG 1.1//EN" "http://www.w3.org/Graphics/SVG/1.1/DTD/svg11.dtd">
<svg version="1.1" xmlns="http://www.w3.org/2000/svg" xmlns:xlink="http://www.w3.org/1999/xlink" preserveAspectRatio="xMidYMid meet" viewBox="0 0 640 640" width="640" height="640"><defs><path d="" id="fmlr3S9q7"></path><path d="M448.44 314.49C456.14 319.65 466.41 318.64 472.95 312.07C476.7 308.3 470.76 314.26 473.03 311.99C483.02 301.94 482.16 285.46 471.16 276.52C462.17 269.2 439.68 250.91 403.7 221.64C380.06 202.36 365.29 190.3 359.38 185.48C344.04 172.97 322.11 172.66 306.42 184.74C298.99 190.46 280.42 204.76 250.7 227.64C219.34 253.67 199.74 269.94 191.9 276.44C181.05 285.46 180.27 301.84 190.22 311.84C192.51 314.15 186.07 307.67 189.67 311.28C196.65 318.31 207.64 319.4 215.87 313.88C231.03 303.72 260.92 283.69 275.72 273.77C282.95 268.92 292.73 273.54 293.58 282.2C297.16 318.58 306.65 414.9 310.39 452.86C311.02 459.25 316.39 464.12 322.81 464.12C328.55 464.12 334.44 464.12 340.18 464.12C346.61 464.12 351.98 459.25 352.63 452.86C356.44 414.9 366.23 317.51 369.91 280.86C370.72 272.8 379.83 268.51 386.56 273.02C401.58 283.09 433.09 304.21 448.44 314.49Z" id="a20g6GSdx9"></path></defs><g><g><g><g><use xlink:href="#fmlr3S9q7" opacity="1" fill-opacity="0" stroke="#000000" stroke-width="1" stroke-opacity="1"></use></g></g><g><use xlink:href="#a20g6GSdx9" opacity="1" fill="#ffffff" fill-opacity="1"></use><g><use xlink:href="#a20g6GSdx9" opacity="1" fill-opacity="0" stroke="#242424" stroke-width="6" stroke-opacity="1"></use></g></g></g></g></svg>