<?xml version="1.0" encoding="UTF-8"?>
<!DOCTYPE svg PUBLIC "-//W3C//DTD SVG 1.1//EN" "http://www.w3.org/Graphics/SVG/1.1/DTD/svg11.dtd">
<svg version="1.2" width="50.8mm" height="50.8mm" viewBox="0 0 5080 5080" preserveAspectRatio="xMidYMid" fill-rule="evenodd" stroke-width="28.222" stroke-linejoin="round" xmlns="http://www.w3.org/2000/svg" xmlns:ooo="http://xml.openoffice.org/svg/export" xmlns:xlink="http://www.w3.org/1999/xlink" xmlns:presentation="http://sun.com/xmlns/staroffice/presentation" xmlns:smil="http://www.w3.org/2001/SMIL20/" xmlns:anim="urn:oasis:names:tc:opendocument:xmlns:animation:1.0" xml:space="preserve">
 <defs class="ClipPathGroup">
  <clipPath id="presentation_clip_path" clipPathUnits="userSpaceOnUse">
   <rect x="0" y="0" width="5080" height="5080"/>
  </clipPath>
  <clipPath id="presentation_clip_path_shrink" clipPathUnits="userSpaceOnUse">
   <rect x="5" y="5" width="5070" height="5070"/>
  </clipPath>
 </defs>
 <defs class="TextShapeIndex">
  <g ooo:slide="id1" ooo:id-list="id3 id4 id5 id6 id7 id8 id9"/>
 </defs>
 <defs class="EmbeddedBulletChars">
  <g id="bullet-char-template-57356" transform="scale(0.00048828125,-0.00048828125)">
   <path d="M 580,1141 L 1163,571 580,0 -4,571 580,1141 Z"/>
  </g>
  <g id="bullet-char-template-57354" transform="scale(0.00048828125,-0.00048828125)">
   <path d="M 8,1128 L 1137,1128 1137,0 8,0 8,1128 Z"/>
  </g>
  <g id="bullet-char-template-10146" transform="scale(0.00048828125,-0.00048828125)">
   <path d="M 174,0 L 602,739 174,1481 1456,739 174,0 Z M 1358,739 L 309,1346 659,739 1358,739 Z"/>
  </g>
  <g id="bullet-char-template-10132" transform="scale(0.00048828125,-0.00048828125)">
   <path d="M 2015,739 L 1276,0 717,0 1260,543 174,543 174,936 1260,936 717,1481 1274,1481 2015,739 Z"/>
  </g>
  <g id="bullet-char-template-10007" transform="scale(0.00048828125,-0.00048828125)">
   <path d="M 0,-2 C -7,14 -16,27 -25,37 L 356,567 C 262,823 215,952 215,954 215,979 228,992 255,992 264,992 276,990 289,987 310,991 331,999 354,1012 L 381,999 492,748 772,1049 836,1024 860,1049 C 881,1039 901,1025 922,1006 886,937 835,863 770,784 769,783 710,716 594,584 L 774,223 C 774,196 753,168 711,139 L 727,119 C 717,90 699,76 672,76 641,76 570,178 457,381 L 164,-76 C 142,-110 111,-127 72,-127 30,-127 9,-110 8,-76 1,-67 -2,-52 -2,-32 -2,-23 -1,-13 0,-2 Z"/>
  </g>
  <g id="bullet-char-template-10004" transform="scale(0.00048828125,-0.00048828125)">
   <path d="M 285,-33 C 182,-33 111,30 74,156 52,228 41,333 41,471 41,549 55,616 82,672 116,743 169,778 240,778 293,778 328,747 346,684 L 369,508 C 377,444 397,411 428,410 L 1163,1116 C 1174,1127 1196,1133 1229,1133 1271,1133 1292,1118 1292,1087 L 1292,965 C 1292,929 1282,901 1262,881 L 442,47 C 390,-6 338,-33 285,-33 Z"/>
  </g>
  <g id="bullet-char-template-9679" transform="scale(0.00048828125,-0.00048828125)">
   <path d="M 813,0 C 632,0 489,54 383,161 276,268 223,411 223,592 223,773 276,916 383,1023 489,1130 632,1184 813,1184 992,1184 1136,1130 1245,1023 1353,916 1407,772 1407,592 1407,412 1353,268 1245,161 1136,54 992,0 813,0 Z"/>
  </g>
  <g id="bullet-char-template-8226" transform="scale(0.00048828125,-0.00048828125)">
   <path d="M 346,457 C 273,457 209,483 155,535 101,586 74,649 74,723 74,796 101,859 155,911 209,963 273,989 346,989 419,989 480,963 531,910 582,859 608,796 608,723 608,648 583,586 532,535 482,483 420,457 346,457 Z"/>
  </g>
  <g id="bullet-char-template-8211" transform="scale(0.00048828125,-0.00048828125)">
   <path d="M -4,459 L 1135,459 1135,606 -4,606 -4,459 Z"/>
  </g>
  <g id="bullet-char-template-61548" transform="scale(0.00048828125,-0.00048828125)">
   <path d="M 173,740 C 173,903 231,1043 346,1159 462,1274 601,1332 765,1332 928,1332 1067,1274 1183,1159 1299,1043 1357,903 1357,740 1357,577 1299,437 1183,322 1067,206 928,148 765,148 601,148 462,206 346,322 231,437 173,577 173,740 Z"/>
  </g>
 </defs>
 <g>
  <g id="id2" class="Master_Slide">
   <g id="bg-id2" class="Background"/>
   <g id="bo-id2" class="BackgroundObjects"/>
  </g>
 </g>
 <g class="SlideGroup">
  <g>
   <g id="container-id1">
    <g id="id1" class="Slide" clip-path="url(#presentation_clip_path)">
     <g class="Page">
      <g class="com.sun.star.drawing.PolyPolygonShape">
       <g id="id3">
        <rect class="BoundingBox" stroke="none" fill="none" x="1019" y="1056" width="3051" height="1570"/>
        <path fill="rgb(119,188,101)" stroke="none" d="M 1070,1107 L 3957,1552 4017,2213 3584,2574 1070,1107 Z"/>
        <path fill="none" stroke="rgb(52,101,164)" stroke-width="102" stroke-linejoin="round" d="M 1070,1107 L 3957,1552 4017,2213 3584,2574 1070,1107 Z"/>
       </g>
      </g>
      <g class="com.sun.star.drawing.CustomShape">
       <g id="id4">
        <rect class="BoundingBox" stroke="none" fill="none" x="3882" y="1958" width="790" height="790"/>
        <path fill="rgb(119,188,101)" stroke="none" d="M 4620,2353 C 4620,2413 4604,2472 4574,2524 4544,2576 4500,2620 4448,2650 4396,2680 4337,2696 4277,2696 4216,2696 4157,2680 4105,2650 4053,2620 4009,2576 3979,2524 3949,2472 3933,2413 3933,2353 3933,2292 3949,2233 3979,2181 4009,2129 4053,2085 4105,2055 4157,2025 4216,2009 4277,2009 4337,2009 4396,2025 4448,2055 4500,2085 4544,2129 4574,2181 4604,2233 4620,2292 4620,2352 L 4620,2353 Z"/>
        <path fill="none" stroke="rgb(52,101,164)" stroke-width="102" stroke-linejoin="round" d="M 4620,2353 C 4620,2413 4604,2472 4574,2524 4544,2576 4500,2620 4448,2650 4396,2680 4337,2696 4277,2696 4216,2696 4157,2680 4105,2650 4053,2620 4009,2576 3979,2524 3949,2472 3933,2413 3933,2353 3933,2292 3949,2233 3979,2181 4009,2129 4053,2085 4105,2055 4157,2025 4216,2009 4277,2009 4337,2009 4396,2025 4448,2055 4500,2085 4544,2129 4574,2181 4604,2233 4620,2292 4620,2352 L 4620,2353 Z"/>
       </g>
      </g>
      <g class="com.sun.star.drawing.CustomShape">
       <g id="id5">
        <rect class="BoundingBox" stroke="none" fill="none" x="348" y="588" width="790" height="790"/>
        <path fill="rgb(119,188,101)" stroke="none" d="M 1086,983 C 1086,1043 1070,1102 1040,1154 1010,1206 966,1250 914,1280 862,1310 803,1326 743,1326 682,1326 623,1310 571,1280 519,1250 475,1206 445,1154 415,1102 399,1043 399,983 399,922 415,863 445,811 475,759 519,715 571,685 623,655 682,639 742,639 803,639 862,655 914,685 966,715 1010,759 1040,811 1070,863 1086,922 1086,982 L 1086,983 Z"/>
        <path fill="none" stroke="rgb(52,101,164)" stroke-width="102" stroke-linejoin="round" d="M 1086,983 C 1086,1043 1070,1102 1040,1154 1010,1206 966,1250 914,1280 862,1310 803,1326 743,1326 682,1326 623,1310 571,1280 519,1250 475,1206 445,1154 415,1102 399,1043 399,983 399,922 415,863 445,811 475,759 519,715 571,685 623,655 682,639 742,639 803,639 862,655 914,685 966,715 1010,759 1040,811 1070,863 1086,922 1086,982 L 1086,983 Z"/>
       </g>
      </g>
      <g class="com.sun.star.drawing.CustomShape">
       <g id="id6">
        <rect class="BoundingBox" stroke="none" fill="none" x="949" y="4029" width="790" height="791"/>
        <path fill="rgb(119,188,101)" stroke="none" d="M 1687,4424 C 1687,4484 1671,4543 1641,4595 1611,4647 1567,4691 1515,4721 1463,4751 1404,4767 1344,4767 1283,4767 1224,4751 1172,4721 1120,4691 1076,4647 1046,4595 1016,4543 1000,4484 1000,4424 1000,4363 1016,4304 1046,4252 1076,4200 1120,4156 1172,4126 1224,4096 1283,4080 1343,4080 1404,4080 1463,4096 1515,4126 1567,4156 1611,4200 1641,4252 1671,4304 1687,4363 1687,4424 L 1687,4424 Z"/>
        <path fill="none" stroke="rgb(52,101,164)" stroke-width="102" stroke-linejoin="round" d="M 1687,4424 C 1687,4484 1671,4543 1641,4595 1611,4647 1567,4691 1515,4721 1463,4751 1404,4767 1344,4767 1283,4767 1224,4751 1172,4721 1120,4691 1076,4647 1046,4595 1016,4543 1000,4484 1000,4424 1000,4363 1016,4304 1046,4252 1076,4200 1120,4156 1172,4126 1224,4096 1283,4080 1343,4080 1404,4080 1463,4096 1515,4126 1567,4156 1611,4200 1641,4252 1671,4304 1687,4363 1687,4424 Z"/>
       </g>
      </g>
      <g class="com.sun.star.drawing.PolyPolygonShape">
       <g id="id7">
        <rect class="BoundingBox" stroke="none" fill="none" x="1416" y="2571" width="2716" height="1943"/>
        <path fill="rgb(119,188,101)" stroke="none" d="M 4080,2622 L 1467,3488 1624,4222 2201,4462 4080,2622 Z"/>
        <path fill="none" stroke="rgb(52,101,164)" stroke-width="102" stroke-linejoin="round" d="M 4080,2622 L 1467,3488 1624,4222 2201,4462 4080,2622 Z"/>
       </g>
      </g>
      <g class="com.sun.star.drawing.PolyPolygonShape">
       <g id="id8">
        <rect class="BoundingBox" stroke="none" fill="none" x="562" y="949" width="3964" height="3794"/>
        <path fill="rgb(232,162,2)" fill-opacity="0.502" stroke="rgb(255,255,255)" stroke-opacity="0.502" d="M 4474,1000 L 613,3404 3608,4691 4474,1000 Z"/>
        <path fill="none" stroke="rgb(184,92,0)" stroke-width="102" stroke-linejoin="round" d="M 4474,1000 L 613,3404 3608,4691 4474,1000 Z"/>
       </g>
      </g>
      <g class="com.sun.star.drawing.PolyPolygonShape">
       <g id="id9">
        <rect class="BoundingBox" stroke="none" fill="none" x="585" y="202" width="3941" height="3242"/>
        <path fill="rgb(232,162,2)" fill-opacity="0.502" stroke="rgb(255,255,255)" stroke-opacity="0.502" d="M 1660,253 L 4474,1000 637,3392 1660,253 Z"/>
        <path fill="none" stroke="rgb(184,92,0)" stroke-width="102" stroke-linejoin="round" d="M 1660,253 L 4474,1000 637,3392 1660,253 Z"/>
       </g>
      </g>
     </g>
    </g>
   </g>
  </g>
 </g>
</svg>