<?xml version="1.0" encoding="UTF-8"?>
<!DOCTYPE svg PUBLIC "-//W3C//DTD SVG 1.1//EN" "http://www.w3.org/Graphics/SVG/1.1/DTD/svg11.dtd">
<svg version="1.2" width="50.8mm" height="50.8mm" viewBox="0 0 5080 5080" preserveAspectRatio="xMidYMid" fill-rule="evenodd" stroke-width="28.222" stroke-linejoin="round" xmlns="http://www.w3.org/2000/svg" xmlns:ooo="http://xml.openoffice.org/svg/export" xmlns:xlink="http://www.w3.org/1999/xlink" xmlns:presentation="http://sun.com/xmlns/staroffice/presentation" xmlns:smil="http://www.w3.org/2001/SMIL20/" xmlns:anim="urn:oasis:names:tc:opendocument:xmlns:animation:1.0" xml:space="preserve">
 <defs class="ClipPathGroup">
  <clipPath id="presentation_clip_path" clipPathUnits="userSpaceOnUse">
   <rect x="0" y="0" width="5080" height="5080"/>
  </clipPath>
  <clipPath id="presentation_clip_path_shrink" clipPathUnits="userSpaceOnUse">
   <rect x="5" y="5" width="5070" height="5070"/>
  </clipPath>
 </defs>
 <defs class="TextShapeIndex">
  <g ooo:slide="id1" ooo:id-list="id3 id4 id5 id6 id7 id8 id9"/>
 </defs>
 <defs class="EmbeddedBulletChars">
  <g id="bullet-char-template-57356" transform="scale(0.00048828125,-0.00048828125)">
   <path d="M 580,1141 L 1163,571 580,0 -4,571 580,1141 Z"/>
  </g>
  <g id="bullet-char-template-57354" transform="scale(0.00048828125,-0.00048828125)">
   <path d="M 8,1128 L 1137,1128 1137,0 8,0 8,1128 Z"/>
  </g>
  <g id="bullet-char-template-10146" transform="scale(0.00048828125,-0.00048828125)">
   <path d="M 174,0 L 602,739 174,1481 1456,739 174,0 Z M 1358,739 L 309,1346 659,739 1358,739 Z"/>
  </g>
  <g id="bullet-char-template-10132" transform="scale(0.00048828125,-0.00048828125)">
   <path d="M 2015,739 L 1276,0 717,0 1260,543 174,543 174,936 1260,936 717,1481 1274,1481 2015,739 Z"/>
  </g>
  <g id="bullet-char-template-10007" transform="scale(0.00048828125,-0.00048828125)">
   <path d="M 0,-2 C -7,14 -16,27 -25,37 L 356,567 C 262,823 215,952 215,954 215,979 228,992 255,992 264,992 276,990 289,987 310,991 331,999 354,1012 L 381,999 492,748 772,1049 836,1024 860,1049 C 881,1039 901,1025 922,1006 886,937 835,863 770,784 769,783 710,716 594,584 L 774,223 C 774,196 753,168 711,139 L 727,119 C 717,90 699,76 672,76 641,76 570,178 457,381 L 164,-76 C 142,-110 111,-127 72,-127 30,-127 9,-110 8,-76 1,-67 -2,-52 -2,-32 -2,-23 -1,-13 0,-2 Z"/>
  </g>
  <g id="bullet-char-template-10004" transform="scale(0.00048828125,-0.00048828125)">
   <path d="M 285,-33 C 182,-33 111,30 74,156 52,228 41,333 41,471 41,549 55,616 82,672 116,743 169,778 240,778 293,778 328,747 346,684 L 369,508 C 377,444 397,411 428,410 L 1163,1116 C 1174,1127 1196,1133 1229,1133 1271,1133 1292,1118 1292,1087 L 1292,965 C 1292,929 1282,901 1262,881 L 442,47 C 390,-6 338,-33 285,-33 Z"/>
  </g>
  <g id="bullet-char-template-9679" transform="scale(0.00048828125,-0.00048828125)">
   <path d="M 813,0 C 632,0 489,54 383,161 276,268 223,411 223,592 223,773 276,916 383,1023 489,1130 632,1184 813,1184 992,1184 1136,1130 1245,1023 1353,916 1407,772 1407,592 1407,412 1353,268 1245,161 1136,54 992,0 813,0 Z"/>
  </g>
  <g id="bullet-char-template-8226" transform="scale(0.00048828125,-0.00048828125)">
   <path d="M 346,457 C 273,457 209,483 155,535 101,586 74,649 74,723 74,796 101,859 155,911 209,963 273,989 346,989 419,989 480,963 531,910 582,859 608,796 608,723 608,648 583,586 532,535 482,483 420,457 346,457 Z"/>
  </g>
  <g id="bullet-char-template-8211" transform="scale(0.00048828125,-0.00048828125)">
   <path d="M -4,459 L 1135,459 1135,606 -4,606 -4,459 Z"/>
  </g>
  <g id="bullet-char-template-61548" transform="scale(0.00048828125,-0.00048828125)">
   <path d="M 173,740 C 173,903 231,1043 346,1159 462,1274 601,1332 765,1332 928,1332 1067,1274 1183,1159 1299,1043 1357,903 1357,740 1357,577 1299,437 1183,322 1067,206 928,148 765,148 601,148 462,206 346,322 231,437 173,577 173,740 Z"/>
  </g>
 </defs>
 <g>
  <g id="id2" class="Master_Slide">
   <g id="bg-id2" class="Background"/>
   <g id="bo-id2" class="BackgroundObjects"/>
  </g>
 </g>
 <g class="SlideGroup">
  <g>
   <g id="container-id1">
    <g id="id1" class="Slide" clip-path="url(#presentation_clip_path)">
     <g class="Page">
      <g class="com.sun.star.drawing.CustomShape">
       <g id="id3">
        <rect class="BoundingBox" stroke="none" fill="none" x="2085" y="648" width="2339" height="2287"/>
        <path fill="rgb(68,75,115)" stroke="none" d="M 4372,1791 C 4372,1983 4320,2171 4222,2337 4124,2503 3983,2641 3813,2737 3643,2833 3450,2883 3254,2883 3058,2883 2865,2833 2695,2737 2525,2641 2384,2503 2286,2337 2188,2171 2136,1983 2136,1791 2136,1599 2188,1411 2286,1245 2384,1079 2525,941 2695,845 2865,749 3058,699 3254,699 3450,699 3643,749 3813,845 3983,941 4124,1079 4222,1245 4320,1411 4372,1599 4372,1791 L 4372,1791 Z M 3591,1791 C 3591,1849 3575,1905 3546,1955 3516,2005 3474,2047 3422,2076 3371,2105 3313,2120 3254,2120 3195,2120 3137,2105 3086,2076 3034,2047 2992,2005 2962,1955 2933,1905 2917,1849 2917,1791 2917,1733 2933,1677 2962,1627 2992,1577 3034,1535 3086,1506 3137,1477 3195,1462 3254,1462 3313,1462 3371,1477 3422,1506 3474,1535 3516,1577 3546,1627 3575,1677 3591,1733 3591,1791 L 3591,1791 Z"/>
        <path fill="none" stroke="rgb(52,101,164)" stroke-width="102" stroke-linejoin="round" d="M 4372,1791 C 4372,1983 4320,2171 4222,2337 4124,2503 3983,2641 3813,2737 3643,2833 3450,2883 3254,2883 3058,2883 2865,2833 2695,2737 2525,2641 2384,2503 2286,2337 2188,2171 2136,1983 2136,1791 2136,1599 2188,1411 2286,1245 2384,1079 2525,941 2695,845 2865,749 3058,699 3254,699 3450,699 3643,749 3813,845 3983,941 4124,1079 4222,1245 4320,1411 4372,1599 4372,1791 L 4372,1791 Z"/>
        <path fill="none" stroke="rgb(52,101,164)" stroke-width="102" stroke-linejoin="round" d="M 3591,1791 C 3591,1849 3575,1905 3546,1955 3516,2005 3474,2047 3422,2076 3371,2105 3313,2120 3254,2120 3195,2120 3137,2105 3086,2076 3034,2047 2992,2005 2962,1955 2933,1905 2917,1849 2917,1791 2917,1733 2933,1677 2962,1627 2992,1577 3034,1535 3086,1506 3137,1477 3195,1462 3254,1462 3313,1462 3371,1477 3422,1506 3474,1535 3516,1577 3546,1627 3575,1677 3591,1733 3591,1791 Z"/>
       </g>
      </g>
      <g class="com.sun.star.drawing.CustomShape">
       <g id="id4">
        <rect class="BoundingBox" stroke="none" fill="none" x="871" y="1541" width="1457" height="1392"/>
        <path fill="rgb(68,75,115)" stroke="none" d="M 2276,2237 C 2276,2350 2245,2461 2185,2559 2126,2657 2040,2738 1938,2795 1835,2851 1718,2881 1599,2881 1480,2881 1363,2851 1261,2795 1158,2738 1072,2657 1013,2559 953,2461 922,2350 922,2237 922,2124 953,2013 1013,1915 1072,1817 1158,1736 1260,1679 1363,1623 1480,1593 1599,1593 1718,1593 1835,1623 1937,1679 2040,1736 2126,1817 2185,1915 2245,2013 2276,2124 2276,2237 L 2276,2237 Z M 1803,2237 C 1803,2271 1794,2305 1776,2334 1758,2363 1732,2388 1701,2405 1670,2422 1635,2431 1599,2431 1563,2431 1528,2422 1497,2405 1466,2388 1440,2363 1422,2334 1404,2305 1395,2271 1395,2237 1395,2203 1404,2169 1422,2140 1440,2111 1466,2086 1497,2069 1528,2052 1563,2043 1599,2043 1635,2043 1670,2052 1701,2069 1732,2086 1758,2111 1776,2140 1794,2169 1803,2203 1803,2237 L 1803,2237 Z"/>
        <path fill="none" stroke="rgb(52,101,164)" stroke-width="102" stroke-linejoin="round" d="M 2276,2237 C 2276,2350 2245,2461 2185,2559 2126,2657 2040,2738 1938,2795 1835,2851 1718,2881 1599,2881 1480,2881 1363,2851 1261,2795 1158,2738 1072,2657 1013,2559 953,2461 922,2350 922,2237 922,2124 953,2013 1013,1915 1072,1817 1158,1736 1260,1679 1363,1623 1480,1593 1599,1593 1718,1593 1835,1623 1937,1679 2040,1736 2126,1817 2185,1915 2245,2013 2276,2124 2276,2237 L 2276,2237 Z"/>
        <path fill="none" stroke="rgb(52,101,164)" stroke-width="102" stroke-linejoin="round" d="M 1803,2237 C 1803,2271 1794,2305 1776,2334 1758,2363 1732,2388 1701,2405 1670,2422 1635,2431 1599,2431 1563,2431 1528,2422 1497,2405 1466,2388 1440,2363 1422,2334 1404,2305 1395,2271 1395,2237 1395,2203 1404,2169 1422,2140 1440,2111 1466,2086 1497,2069 1528,2052 1563,2043 1599,2043 1635,2043 1670,2052 1701,2069 1732,2086 1758,2111 1776,2140 1794,2169 1803,2203 1803,2237 Z"/>
       </g>
      </g>
      <g class="com.sun.star.drawing.PolyPolygonShape">
       <g id="id5">
        <rect class="BoundingBox" stroke="none" fill="none" x="1229" y="3769" width="56" height="17"/>
        <path fill="none" stroke="rgb(52,101,164)" d="M 1230,3770 L 1283,3784"/>
       </g>
      </g>
      <g class="com.sun.star.drawing.PolyPolygonShape">
       <g id="id6">
        <rect class="BoundingBox" stroke="none" fill="none" x="949" y="2963" width="2467" height="1502"/>
        <path fill="rgb(68,75,115)" stroke="none" d="M 3364,3014 L 1000,3014 1000,3638 1550,3638 1550,4413 3364,4413 3364,3014 Z"/>
        <path fill="none" stroke="rgb(52,101,164)" stroke-width="102" stroke-linejoin="round" d="M 3364,3014 L 1000,3014 1000,3638 1550,3638 1550,4413 3364,4413 3364,3014 Z"/>
       </g>
      </g>
      <g class="com.sun.star.drawing.CustomShape">
       <g id="id7">
        <rect class="BoundingBox" stroke="none" fill="none" x="3329" y="2950" width="956" height="1398"/>
        <path fill="rgb(68,75,115)" stroke="none" d="M 4232,3002 L 4224,4296 3380,3760 3382,3526 4232,3002 Z"/>
        <path fill="none" stroke="rgb(52,101,164)" stroke-width="102" stroke-linejoin="round" d="M 4232,3002 L 4224,4296 3380,3760 3382,3526 4232,3002 Z"/>
       </g>
      </g>
      <g class="com.sun.star.drawing.PolyPolygonShape">
       <g id="id8">
        <rect class="BoundingBox" stroke="none" fill="none" x="1571" y="1782" width="1740" height="1096"/>
        <path fill="rgb(68,75,115)" stroke="none" d="M 3310,2870 L 1573,2877 1571,2643 2008,2339 1989,1903 2263,1782 2881,2265 3310,2556 3310,2870 Z"/>
       </g>
      </g>
      <g class="com.sun.star.drawing.LineShape">
       <g id="id9">
        <rect class="BoundingBox" stroke="none" fill="none" x="1498" y="2828" width="1876" height="103"/>
        <path fill="none" stroke="rgb(52,101,164)" stroke-width="102" stroke-linejoin="round" d="M 3322,2879 L 1549,2879"/>
       </g>
      </g>
     </g>
    </g>
   </g>
  </g>
 </g>
</svg>