<?xml version="1.0" encoding="UTF-8" standalone="no"?>
<!DOCTYPE svg PUBLIC "-//W3C//DTD SVG 1.1//EN" "http://www.w3.org/Graphics/SVG/1.1/DTD/svg11.dtd">
<svg version="1.1" xmlns="http://www.w3.org/2000/svg" xmlns:xlink="http://www.w3.org/1999/xlink" preserveAspectRatio="xMidYMid meet" viewBox="0 0 640 640" width="640" height="640"><defs><path d="M466.67 185.15C485.08 185.15 500 200.08 500 218.49C500 282.79 500 401.07 500 455.05C500 501.97 461.97 540 415.05 540C352.04 540 248.53 540 185.66 540C138.35 540 100 501.65 100 454.34C100 400.5 100 287.31 100 224.14C100 202.61 117.46 185.15 138.99 185.15C211.19 185.15 393.33 185.15 466.67 185.15Z" id="cBv2bxCy0"></path><path d="M100 200L500 200L500 300L100 300L100 200Z" id="aCzqLrhwl"></path><path d="M550.14 57.39C562.49 67.76 564.1 86.18 553.74 98.53C508.64 152.28 392.06 291.21 346.94 344.97C336.62 357.28 318.27 358.89 305.96 348.56C298.16 342.02 297.91 341.81 290.33 335.45C277.42 324.62 275.74 305.37 286.57 292.47C331.5 238.92 447.13 101.12 492.17 47.44C502.69 34.9 521.38 33.27 533.92 43.79C541.64 50.26 542.35 50.86 550.14 57.39Z" id="aPTth8E4"></path><path d="M550.7 337.97C563.06 327.61 564.67 309.19 554.3 296.84C509.2 243.09 392.62 104.15 347.51 50.39C337.18 38.08 318.83 36.48 306.53 46.81C298.73 53.35 298.48 53.56 290.9 59.92C277.99 70.75 276.31 89.99 287.14 102.9C332.07 156.44 447.7 294.25 492.74 347.92C503.26 360.46 521.95 362.1 534.49 351.58C542.21 345.1 542.92 344.5 550.7 337.97Z" id="c29Nc32N"></path></defs><g><g><g><g><use xlink:href="#cBv2bxCy0" opacity="1" fill-opacity="0" stroke="#e3f51d" stroke-width="40" stroke-opacity="1"></use></g></g><g><use xlink:href="#aCzqLrhwl" opacity="1" fill="#e3f51d" fill-opacity="1"></use></g><g><use xlink:href="#aPTth8E4" opacity="1" fill="#ff0000" fill-opacity="1"></use></g><g><use xlink:href="#c29Nc32N" opacity="1" fill="#ff0000" fill-opacity="1"></use></g></g></g></svg>