<?xml version="1.0" encoding="UTF-8" standalone="no"?>
<!DOCTYPE svg PUBLIC "-//W3C//DTD SVG 1.1//EN" "http://www.w3.org/Graphics/SVG/1.1/DTD/svg11.dtd">
<svg version="1.1" xmlns="http://www.w3.org/2000/svg" xmlns:xlink="http://www.w3.org/1999/xlink" preserveAspectRatio="xMidYMid meet" viewBox="0 0 640 640" width="640" height="640"><defs><path d="M466.67 185.15C485.08 185.15 500 200.08 500 218.49C500 282.79 500 401.07 500 455.05C500 501.97 461.97 540 415.05 540C352.04 540 248.53 540 185.66 540C138.35 540 100 501.65 100 454.34C100 400.5 100 287.31 100 224.14C100 202.61 117.46 185.15 138.99 185.15C211.19 185.15 393.33 185.15 466.67 185.15Z" id="fkeCIVaDy"></path><path d="M100 200L500 200L500 300L100 300L100 200Z" id="aCzqLrhwl"></path><path d="M520 460C520 460 520 460 520 460C553.14 460 580 433.14 580 400C580 340 580 203.19 580 138.99C580 117.46 562.54 100 541.01 100C472.41 100 304.47 100 235.58 100C215.02 100 198.52 117.01 199.15 137.57C199.26 141.27 199.55 150.53 200 165.35" id="b9NwQkOpx"></path></defs><g><g><g><g><use xlink:href="#fkeCIVaDy" opacity="1" fill-opacity="0" stroke="#e3f51d" stroke-width="40" stroke-opacity="1"></use></g></g><g><use xlink:href="#aCzqLrhwl" opacity="1" fill="#e3f51d" fill-opacity="1"></use></g><g><g><use xlink:href="#b9NwQkOpx" opacity="1" fill-opacity="0" stroke="#d235db" stroke-width="40" stroke-opacity="1"></use></g></g></g></g></svg>