<?xml version="1.0" encoding="UTF-8" standalone="no"?>
<!DOCTYPE svg PUBLIC "-//W3C//DTD SVG 1.1//EN" "http://www.w3.org/Graphics/SVG/1.1/DTD/svg11.dtd">
<svg version="1.1" xmlns="http://www.w3.org/2000/svg" xmlns:xlink="http://www.w3.org/1999/xlink" preserveAspectRatio="xMidYMid meet" viewBox="0 0 640 640" width="640" height="640"><defs><path d="M202.32 122.52C217.61 122.52 230 134.91 230 150.2C230 195.5 230 308.77 230 490C202 490 184.5 490 177.5 490C162.31 490 150 477.69 150 462.5C150 394.5 150 216.74 150 148.43C150 134.12 161.6 122.52 175.91 122.52C186.73 122.52 191.86 122.52 202.32 122.52Z" id="eINou2j9H"></path><path d="M520 462.32C520 477.61 507.61 490 492.32 490C423.86 490 243.76 490 174.7 490C161.06 490 150 478.94 150 465.3C150 457.92 150 439.49 150 410C333.51 410 448.21 410 494.09 410C508.4 410 520 421.6 520 435.91C520 446.73 520 451.86 520 462.32Z" id="a2BFLv8NqN"></path><path d="M389.91 268.25C400.72 279.05 400.72 296.58 389.91 307.39C371.57 325.73 325.72 371.58 252.35 444.95L195.78 388.38C269.82 314.35 316.09 268.08 334.59 249.57C344.71 239.45 361.12 239.45 371.24 249.57C378.89 257.22 382.51 260.85 389.91 268.25Z" id="a1r8xHSdnC"></path></defs><g><g><g><use xlink:href="#eINou2j9H" opacity="1" fill="#c9c11a" fill-opacity="1"></use><g><use xlink:href="#eINou2j9H" opacity="1" fill-opacity="0" stroke="#002b9e" stroke-width="0" stroke-opacity="1"></use></g></g><g><use xlink:href="#a2BFLv8NqN" opacity="1" fill="#c9c11a" fill-opacity="1"></use><g><use xlink:href="#a2BFLv8NqN" opacity="1" fill-opacity="0" stroke="#002b9e" stroke-width="0" stroke-opacity="1"></use></g></g><g><use xlink:href="#a1r8xHSdnC" opacity="1" fill="#c9c11a" fill-opacity="1"></use><g><use xlink:href="#a1r8xHSdnC" opacity="1" fill-opacity="0" stroke="#002b9e" stroke-width="0" stroke-opacity="1"></use></g></g></g></g></svg>