<?xml version="1.0" encoding="UTF-8" standalone="no"?>
<!DOCTYPE svg PUBLIC "-//W3C//DTD SVG 1.1//EN" "http://www.w3.org/Graphics/SVG/1.1/DTD/svg11.dtd">
<svg version="1.1" xmlns="http://www.w3.org/2000/svg" xmlns:xlink="http://www.w3.org/1999/xlink" preserveAspectRatio="xMidYMid meet" viewBox="0 0 640 640" width="640" height="640"><defs><path d="M130 420L130 144.71L40 144.71L160 60L280 144.71L190 144.71L190 420L130 420Z" id="dRmiOOlnj"></path><path d="M210 500C210 527.95 187.6 550.64 160 550.64C132.4 550.64 110 527.95 110 500C110 472.05 132.4 449.36 160 449.36C187.6 449.36 210 472.05 210 500Z" id="a3n2jSObZ"></path><path d="M240 470L515.29 470L515.29 380L600 500L515.29 620L515.29 530L240 530L240 470Z" id="a24SLYQFMK"></path><path d="M196.51 418.3L391.17 223.64L327.53 160L472.28 184.96L497.24 329.71L433.6 266.07L238.93 460.73L196.51 418.3Z" id="f4iriArzqf"></path></defs><g><g><g><use xlink:href="#dRmiOOlnj" opacity="1" fill="#ffffff" fill-opacity="1"></use><g><use xlink:href="#dRmiOOlnj" opacity="1" fill-opacity="0" stroke="#ffffff" stroke-width="2" stroke-opacity="1"></use></g></g><g><use xlink:href="#a3n2jSObZ" opacity="1" fill="#ffffff" fill-opacity="0"></use><g><use xlink:href="#a3n2jSObZ" opacity="1" fill-opacity="0" stroke="#ffffff" stroke-width="31" stroke-opacity="1"></use></g></g><g><use xlink:href="#a24SLYQFMK" opacity="1" fill="#ffffff" fill-opacity="1"></use><g><use xlink:href="#a24SLYQFMK" opacity="1" fill-opacity="0" stroke="#ffffff" stroke-width="2" stroke-opacity="1"></use></g></g><g><use xlink:href="#f4iriArzqf" opacity="1" fill="#ffffff" fill-opacity="1"></use><g><use xlink:href="#f4iriArzqf" opacity="1" fill-opacity="0" stroke="#ffffff" stroke-width="2" stroke-opacity="1"></use></g></g></g></g></svg>