<?xml version="1.0" encoding="UTF-8" standalone="no"?>
<!DOCTYPE svg PUBLIC "-//W3C//DTD SVG 1.1//EN" "http://www.w3.org/Graphics/SVG/1.1/DTD/svg11.dtd">
<svg version="1.1" xmlns="http://www.w3.org/2000/svg" xmlns:xlink="http://www.w3.org/1999/xlink" preserveAspectRatio="xMidYMid meet" viewBox="0 0 640 640" width="640" height="640"><defs><path d="M472.72 480L520 410" id="bTPmxIjEc"></path><path d="M150 490L520 490L520 410" id="a9uMcTwQD"></path><path d="" id="dARp1XVKb"></path><path d="M180 421.35C180 272.46 180 179.41 180 142.18C180 119.63 161.72 101.35 139.17 101.35C131.33 101.35 147.33 101.35 139.17 101.35C117.54 101.35 100 118.89 100 140.52C100 212.69 100 419.5 100 499.04C100 499.89 101.03 500.32 101.63 499.72C112.08 489.27 138.2 463.15 180 421.35Z" id="e8fmuvaciy"></path><path d="M100 500L180 420C328.89 420 421.95 420 459.17 420C481.72 420 500 438.28 500 460.83C500 468.67 500 452.67 500 460.83C500 482.46 482.46 500 460.83 500C412.72 500 292.44 500 100 500Z" id="a3aC7Eq36y"></path><path d="M180 365.73C261.55 284.17 312.52 233.2 332.91 212.81C350 195.73 377.7 195.73 394.78 212.81C399.91 217.94 388.6 206.63 394.78 212.81C408.94 226.97 408.94 249.92 394.78 264.08C373.69 285.17 320.95 337.91 236.57 422.29L180 422.29L180 365.73Z" id="b4e7F2Afam"></path></defs><g><g><g><g><use xlink:href="#bTPmxIjEc" opacity="1" fill-opacity="0" stroke="#002b9e" stroke-width="0" stroke-opacity="1"></use></g></g><g><g><use xlink:href="#a9uMcTwQD" opacity="1" fill-opacity="0" stroke="#002b9e" stroke-width="0" stroke-opacity="1"></use></g></g><g><g><use xlink:href="#dARp1XVKb" opacity="1" fill-opacity="0" stroke="#002b9e" stroke-width="0" stroke-opacity="1"></use></g></g><g><use xlink:href="#e8fmuvaciy" opacity="1" fill="#ffffff" fill-opacity="1"></use><g><use xlink:href="#e8fmuvaciy" opacity="1" fill-opacity="0" stroke="#002b9e" stroke-width="0" stroke-opacity="1"></use></g></g><g><use xlink:href="#a3aC7Eq36y" opacity="1" fill="#ffffff" fill-opacity="1"></use><g><use xlink:href="#a3aC7Eq36y" opacity="1" fill-opacity="0" stroke="#002b9e" stroke-width="0" stroke-opacity="1"></use></g></g><g><use xlink:href="#b4e7F2Afam" opacity="1" fill="#fefeff" fill-opacity="1"></use><g><use xlink:href="#b4e7F2Afam" opacity="1" fill-opacity="0" stroke="#002b9e" stroke-width="0" stroke-opacity="1"></use></g></g></g></g></svg>