<?xml version="1.0" encoding="UTF-8" standalone="no"?>
<!DOCTYPE svg PUBLIC "-//W3C//DTD SVG 1.1//EN" "http://www.w3.org/Graphics/SVG/1.1/DTD/svg11.dtd">
<svg version="1.1" xmlns="http://www.w3.org/2000/svg" xmlns:xlink="http://www.w3.org/1999/xlink" preserveAspectRatio="xMidYMid meet" viewBox="0 0 640 640" width="640" height="640"><defs><path d="M189.72 121.98C211.97 121.98 230 140.01 230 162.26C230 205.96 230 315.21 230 490C217.31 490 209.38 490 206.21 490C175.16 490 150 464.84 150 433.79C150 371.43 150 226.39 150 160.49C150 139.22 167.24 121.98 188.51 121.98C196.81 121.98 181.78 121.98 189.72 121.98Z" id="alkJoJ1H1"></path><path d="M520 449.72C520 471.97 501.97 490 479.72 490C413.78 490 257.76 490 192.2 490C168.9 490 150 471.1 150 447.8C150 442.76 150 430.16 150 410C326.15 410 436.24 410 480.28 410C502.22 410 520 427.78 520 449.72C520 457.78 520 441.78 520 449.72Z" id="a4B04o84cr"></path><path d="M503.37 135.64C519.46 151.74 519.46 177.84 503.37 193.94C469.9 227.4 386.23 311.08 252.35 444.95L195.78 388.38C330.58 253.59 414.82 169.34 448.52 135.64C463.67 120.5 488.22 120.5 503.37 135.64C509.19 141.47 497.88 130.16 503.37 135.64Z" id="b2h1wCD5Kg"></path></defs><g><g><g><use xlink:href="#alkJoJ1H1" opacity="1" fill="#c9c11a" fill-opacity="1"></use><g><use xlink:href="#alkJoJ1H1" opacity="1" fill-opacity="0" stroke="#002b9e" stroke-width="0" stroke-opacity="1"></use></g></g><g><use xlink:href="#a4B04o84cr" opacity="1" fill="#c9c11a" fill-opacity="1"></use><g><use xlink:href="#a4B04o84cr" opacity="1" fill-opacity="0" stroke="#002b9e" stroke-width="0" stroke-opacity="1"></use></g></g><g><use xlink:href="#b2h1wCD5Kg" opacity="1" fill="#c9c11a" fill-opacity="1"></use><g><use xlink:href="#b2h1wCD5Kg" opacity="1" fill-opacity="0" stroke="#002b9e" stroke-width="0" stroke-opacity="1"></use></g></g></g></g></svg>