<?xml version="1.0" encoding="UTF-8" standalone="no"?>
<!DOCTYPE svg PUBLIC "-//W3C//DTD SVG 1.1//EN" "http://www.w3.org/Graphics/SVG/1.1/DTD/svg11.dtd">
<svg version="1.1" xmlns="http://www.w3.org/2000/svg" xmlns:xlink="http://www.w3.org/1999/xlink" preserveAspectRatio="xMidYMid meet" viewBox="0 0 640 640" width="640" height="640"><defs><path d="M277.45 140C289.91 140 300 150.09 300 162.55C300 229.01 300 377.91 300 437.39C300 469.12 274.28 494.85 242.54 494.85C206.03 494.85 154.35 494.85 117.94 494.85C85.94 494.85 60 468.91 60 436.91C60 377.53 60 232.07 60 166.37C60 151.81 71.81 140 86.37 140C129.1 140 233.96 140 277.45 140Z" id="cGtBEQGKD"></path><path d="M60 154.85L300 154.85L300 254.85L60 254.85L60 154.85Z" id="ayCYPpxuU"></path><path d="M557.45 140C569.91 140 580 150.09 580 162.55C580 229.01 580 377.91 580 437.39C580 469.12 554.28 494.85 522.54 494.85C486.03 494.85 434.35 494.85 397.94 494.85C365.94 494.85 340 468.91 340 436.91C340 377.53 340 232.07 340 166.37C340 151.81 351.81 140 366.37 140C409.1 140 513.96 140 557.45 140Z" id="c1B2EGOupw"></path><path d="M340 154.85L580 154.85L580 254.85L340 254.85L340 154.85Z" id="aw72TniPw"></path></defs><g><g><g><g><use xlink:href="#cGtBEQGKD" opacity="1" fill-opacity="0" stroke="#e3f51d" stroke-width="40" stroke-opacity="1"></use></g></g><g><use xlink:href="#ayCYPpxuU" opacity="1" fill="#e3f51d" fill-opacity="1"></use></g><g><g><use xlink:href="#c1B2EGOupw" opacity="1" fill-opacity="0" stroke="#f51dd6" stroke-width="40" stroke-opacity="1"></use></g></g><g><use xlink:href="#aw72TniPw" opacity="1" fill="#f51dd6" fill-opacity="1"></use></g></g></g></svg>