<?xml version="1.0" encoding="UTF-8"?>
<!DOCTYPE svg PUBLIC "-//W3C//DTD SVG 1.1//EN" "http://www.w3.org/Graphics/SVG/1.1/DTD/svg11.dtd">
<svg version="1.2" width="50.8mm" height="50.8mm" viewBox="0 0 5080 5080" preserveAspectRatio="xMidYMid" fill-rule="evenodd" stroke-width="28.222" stroke-linejoin="round" xmlns="http://www.w3.org/2000/svg" xmlns:ooo="http://xml.openoffice.org/svg/export" xmlns:xlink="http://www.w3.org/1999/xlink" xmlns:presentation="http://sun.com/xmlns/staroffice/presentation" xmlns:smil="http://www.w3.org/2001/SMIL20/" xmlns:anim="urn:oasis:names:tc:opendocument:xmlns:animation:1.0" xml:space="preserve">
 <defs class="ClipPathGroup">
  <clipPath id="presentation_clip_path" clipPathUnits="userSpaceOnUse">
   <rect x="0" y="0" width="5080" height="5080"/>
  </clipPath>
  <clipPath id="presentation_clip_path_shrink" clipPathUnits="userSpaceOnUse">
   <rect x="5" y="5" width="5070" height="5070"/>
  </clipPath>
 </defs>
 <defs class="TextShapeIndex">
  <g ooo:slide="id1" ooo:id-list="id3 id4 id5 id6 id7 id8 id9 id10 id11"/>
 </defs>
 <defs class="EmbeddedBulletChars">
  <g id="bullet-char-template-57356" transform="scale(0.00048828125,-0.00048828125)">
   <path d="M 580,1141 L 1163,571 580,0 -4,571 580,1141 Z"/>
  </g>
  <g id="bullet-char-template-57354" transform="scale(0.00048828125,-0.00048828125)">
   <path d="M 8,1128 L 1137,1128 1137,0 8,0 8,1128 Z"/>
  </g>
  <g id="bullet-char-template-10146" transform="scale(0.00048828125,-0.00048828125)">
   <path d="M 174,0 L 602,739 174,1481 1456,739 174,0 Z M 1358,739 L 309,1346 659,739 1358,739 Z"/>
  </g>
  <g id="bullet-char-template-10132" transform="scale(0.00048828125,-0.00048828125)">
   <path d="M 2015,739 L 1276,0 717,0 1260,543 174,543 174,936 1260,936 717,1481 1274,1481 2015,739 Z"/>
  </g>
  <g id="bullet-char-template-10007" transform="scale(0.00048828125,-0.00048828125)">
   <path d="M 0,-2 C -7,14 -16,27 -25,37 L 356,567 C 262,823 215,952 215,954 215,979 228,992 255,992 264,992 276,990 289,987 310,991 331,999 354,1012 L 381,999 492,748 772,1049 836,1024 860,1049 C 881,1039 901,1025 922,1006 886,937 835,863 770,784 769,783 710,716 594,584 L 774,223 C 774,196 753,168 711,139 L 727,119 C 717,90 699,76 672,76 641,76 570,178 457,381 L 164,-76 C 142,-110 111,-127 72,-127 30,-127 9,-110 8,-76 1,-67 -2,-52 -2,-32 -2,-23 -1,-13 0,-2 Z"/>
  </g>
  <g id="bullet-char-template-10004" transform="scale(0.00048828125,-0.00048828125)">
   <path d="M 285,-33 C 182,-33 111,30 74,156 52,228 41,333 41,471 41,549 55,616 82,672 116,743 169,778 240,778 293,778 328,747 346,684 L 369,508 C 377,444 397,411 428,410 L 1163,1116 C 1174,1127 1196,1133 1229,1133 1271,1133 1292,1118 1292,1087 L 1292,965 C 1292,929 1282,901 1262,881 L 442,47 C 390,-6 338,-33 285,-33 Z"/>
  </g>
  <g id="bullet-char-template-9679" transform="scale(0.00048828125,-0.00048828125)">
   <path d="M 813,0 C 632,0 489,54 383,161 276,268 223,411 223,592 223,773 276,916 383,1023 489,1130 632,1184 813,1184 992,1184 1136,1130 1245,1023 1353,916 1407,772 1407,592 1407,412 1353,268 1245,161 1136,54 992,0 813,0 Z"/>
  </g>
  <g id="bullet-char-template-8226" transform="scale(0.00048828125,-0.00048828125)">
   <path d="M 346,457 C 273,457 209,483 155,535 101,586 74,649 74,723 74,796 101,859 155,911 209,963 273,989 346,989 419,989 480,963 531,910 582,859 608,796 608,723 608,648 583,586 532,535 482,483 420,457 346,457 Z"/>
  </g>
  <g id="bullet-char-template-8211" transform="scale(0.00048828125,-0.00048828125)">
   <path d="M -4,459 L 1135,459 1135,606 -4,606 -4,459 Z"/>
  </g>
  <g id="bullet-char-template-61548" transform="scale(0.00048828125,-0.00048828125)">
   <path d="M 173,740 C 173,903 231,1043 346,1159 462,1274 601,1332 765,1332 928,1332 1067,1274 1183,1159 1299,1043 1357,903 1357,740 1357,577 1299,437 1183,322 1067,206 928,148 765,148 601,148 462,206 346,322 231,437 173,577 173,740 Z"/>
  </g>
 </defs>
 <g>
  <g id="id2" class="Master_Slide">
   <g id="bg-id2" class="Background"/>
   <g id="bo-id2" class="BackgroundObjects"/>
  </g>
 </g>
 <g class="SlideGroup">
  <g>
   <g id="container-id1">
    <g id="id1" class="Slide" clip-path="url(#presentation_clip_path)">
     <g class="Page">
      <g class="com.sun.star.drawing.PolyPolygonShape">
       <g id="id3">
        <rect class="BoundingBox" stroke="none" fill="none" x="1229" y="3769" width="56" height="17"/>
        <path fill="none" stroke="rgb(52,101,164)" d="M 1230,3770 L 1283,3784"/>
       </g>
      </g>
      <g class="com.sun.star.drawing.CustomShape">
       <g id="id4">
        <rect class="BoundingBox" stroke="none" fill="none" x="1845" y="410" width="1391" height="1437"/>
        <path fill="rgb(81,28,214)" stroke="none" d="M 3184,1128 C 3184,1245 3154,1360 3098,1462 3041,1563 2960,1647 2862,1706 2764,1764 2653,1795 2540,1795 2427,1795 2316,1764 2218,1706 2120,1647 2039,1563 1982,1462 1926,1360 1896,1245 1896,1128 1896,1011 1926,896 1982,795 2039,693 2120,609 2218,550 2316,492 2427,461 2540,461 2653,461 2764,492 2862,550 2960,609 3041,693 3098,794 3154,896 3184,1011 3184,1128 L 3184,1128 Z"/>
        <path fill="none" stroke="rgb(52,101,164)" stroke-width="102" stroke-linejoin="round" d="M 3184,1128 C 3184,1245 3154,1360 3098,1462 3041,1563 2960,1647 2862,1706 2764,1764 2653,1795 2540,1795 2427,1795 2316,1764 2218,1706 2120,1647 2039,1563 1982,1462 1926,1360 1896,1245 1896,1128 1896,1011 1926,896 1982,795 2039,693 2120,609 2218,550 2316,492 2427,461 2540,461 2653,461 2764,492 2862,550 2960,609 3041,693 3098,794 3154,896 3184,1011 3184,1128 L 3184,1128 Z"/>
       </g>
      </g>
      <g class="com.sun.star.drawing.CustomShape">
       <g id="id5">
        <rect class="BoundingBox" stroke="none" fill="none" x="1166" y="1805" width="2748" height="2722"/>
        <path fill="rgb(255,255,215)" stroke="none" d="M 3862,3166 C 3862,3395 3801,3621 3685,3820 3569,4019 3402,4185 3201,4300 3000,4414 2772,4475 2540,4475 2307,4475 2079,4414 1878,4300 1677,4185 1510,4019 1394,3820 1278,3621 1217,3395 1217,3166 1217,2936 1278,2710 1394,2511 1510,2312 1677,2146 1878,2031 2079,1917 2307,1856 2539,1856 2772,1856 3000,1917 3201,2031 3402,2146 3569,2312 3685,2511 3801,2710 3862,2936 3862,3165 L 3862,3166 Z"/>
        <path fill="none" stroke="rgb(52,101,164)" stroke-width="102" stroke-linejoin="round" d="M 3862,3166 C 3862,3395 3801,3621 3685,3820 3569,4019 3402,4185 3201,4300 3000,4414 2772,4475 2540,4475 2307,4475 2079,4414 1878,4300 1677,4185 1510,4019 1394,3820 1278,3621 1217,3395 1217,3166 1217,2936 1278,2710 1394,2511 1510,2312 1677,2146 1878,2031 2079,1917 2307,1856 2539,1856 2772,1856 3000,1917 3201,2031 3402,2146 3569,2312 3685,2511 3801,2710 3862,2936 3862,3165 L 3862,3166 Z"/>
       </g>
      </g>
      <g class="com.sun.star.drawing.CustomShape">
       <g id="id6">
        <rect class="BoundingBox" stroke="none" fill="none" x="1845" y="992" width="1390" height="1101"/>
        <path fill="rgb(153,153,153)" stroke="none" d="M 2540,2041 L 1896,2041 1896,1043 3183,1043 3183,2041 2540,2041 Z"/>
        <path fill="none" stroke="rgb(52,101,164)" stroke-width="102" stroke-linejoin="round" d="M 2540,2041 L 1896,2041 1896,1043 3183,1043 3183,2041 2540,2041 Z"/>
       </g>
      </g>
      <g class="com.sun.star.drawing.LineShape">
       <g id="id7">
        <rect class="BoundingBox" stroke="none" fill="none" x="1859" y="1315" width="1391" height="463"/>
        <path fill="none" stroke="rgb(52,101,164)" stroke-width="102" stroke-linejoin="round" d="M 3198,1366 L 1911,1725"/>
       </g>
      </g>
      <g class="com.sun.star.drawing.LineShape">
       <g id="id8">
        <rect class="BoundingBox" stroke="none" fill="none" x="1846" y="1624" width="1391" height="462"/>
        <path fill="none" stroke="rgb(52,101,164)" stroke-width="102" stroke-linejoin="round" d="M 3185,1675 L 1898,2034"/>
       </g>
      </g>
      <g class="com.sun.star.drawing.LineShape">
       <g id="id9">
        <rect class="BoundingBox" stroke="none" fill="none" x="1833" y="1019" width="1391" height="463"/>
        <path fill="none" stroke="rgb(52,101,164)" stroke-width="102" stroke-linejoin="round" d="M 3171,1070 L 1884,1429"/>
       </g>
      </g>
      <g class="com.sun.star.drawing.LineShape">
       <g id="id10">
        <rect class="BoundingBox" stroke="none" fill="none" x="1826" y="992" width="515" height="239"/>
        <path fill="none" stroke="rgb(52,101,164)" stroke-width="102" stroke-linejoin="round" d="M 2288,1043 L 1877,1179"/>
       </g>
      </g>
      <g class="com.sun.star.drawing.LineShape">
       <g id="id11">
        <rect class="BoundingBox" stroke="none" fill="none" x="2654" y="1866" width="553" height="226"/>
        <path fill="none" stroke="rgb(52,101,164)" stroke-width="102" stroke-linejoin="round" d="M 3155,1917 L 2705,2040"/>
       </g>
      </g>
     </g>
    </g>
   </g>
  </g>
 </g>
</svg>