<?xml version="1.0" encoding="UTF-8" standalone="no"?>
<!DOCTYPE svg PUBLIC "-//W3C//DTD SVG 1.1//EN" "http://www.w3.org/Graphics/SVG/1.1/DTD/svg11.dtd">
<svg version="1.1" xmlns="http://www.w3.org/2000/svg" xmlns:xlink="http://www.w3.org/1999/xlink" preserveAspectRatio="xMidYMid meet" viewBox="0 0 640 640" width="640" height="640"><defs><path d="M355 315.32C355 345.85 330.36 370.64 300 370.64C269.64 370.64 245 345.85 245 315.32C245 284.79 269.64 260 300 260C330.36 260 355 284.79 355 315.32Z" id="a3AD4mfJAW"></path><path d="M233.2 96.6C247.65 91.62 263.4 99.3 268.38 113.76C274.12 130.44 288.48 172.14 311.46 238.87L235.82 264.92C212.53 197.3 197.98 155.04 192.16 138.13C187.5 124.6 194.69 109.86 208.22 105.2C218.45 101.68 223.3 100.01 233.2 96.6Z" id="c7Tlqb4XRg"></path><path d="M512.27 389.1C508.32 403.86 493.14 412.62 478.38 408.67C461.33 404.1 418.73 392.68 350.56 374.42L371.27 297.15C440.35 315.65 483.52 327.22 500.79 331.85C514.61 335.55 522.81 349.76 519.11 363.58C516.31 374.03 514.98 378.99 512.27 389.1Z" id="bHmIXPdBW"></path><path d="M146.64 478.66C134.93 468.83 133.4 451.38 143.23 439.67C154.57 426.15 182.92 392.36 228.28 338.3L289.56 389.72C243.6 444.51 214.87 478.75 203.37 492.44C194.18 503.4 177.83 504.83 166.87 495.64C158.58 488.68 154.65 485.39 146.64 478.66Z" id="i4zFsqyfF1"></path></defs><g><g><g><use xlink:href="#a3AD4mfJAW" opacity="1" fill="#000000" fill-opacity="0"></use><g><use xlink:href="#a3AD4mfJAW" opacity="1" fill-opacity="0" stroke="#002b9e" stroke-width="50" stroke-opacity="1"></use></g></g><g><use xlink:href="#c7Tlqb4XRg" opacity="1" fill="#002b9e" fill-opacity="1"></use><g><use xlink:href="#c7Tlqb4XRg" opacity="1" fill-opacity="0" stroke="#002b9e" stroke-width="1" stroke-opacity="1"></use></g></g><g><use xlink:href="#bHmIXPdBW" opacity="1" fill="#002b9e" fill-opacity="1"></use><g><use xlink:href="#bHmIXPdBW" opacity="1" fill-opacity="0" stroke="#002b9e" stroke-width="1" stroke-opacity="1"></use></g></g><g><use xlink:href="#i4zFsqyfF1" opacity="1" fill="#002b9e" fill-opacity="1"></use><g><use xlink:href="#i4zFsqyfF1" opacity="1" fill-opacity="0" stroke="#002b9e" stroke-width="1" stroke-opacity="1"></use></g></g></g></g></svg>