<?xml version="1.0" encoding="UTF-8" standalone="no"?>
<!DOCTYPE svg PUBLIC "-//W3C//DTD SVG 1.1//EN" "http://www.w3.org/Graphics/SVG/1.1/DTD/svg11.dtd">
<svg version="1.1" xmlns="http://www.w3.org/2000/svg" xmlns:xlink="http://www.w3.org/1999/xlink" preserveAspectRatio="xMidYMid meet" viewBox="0 0 640 640" width="640" height="640"><defs><path d="M233.2 96.6C247.65 91.62 263.4 99.3 268.38 113.76C277.05 138.95 298.74 201.92 333.43 302.68L257.79 328.72C222.79 227.07 200.91 163.54 192.16 138.13C187.5 124.6 194.69 109.86 208.22 105.2C218.45 101.68 223.3 100.01 233.2 96.6Z" id="a9rZr2uQ4h"></path><path d="M512.27 389.1C508.32 403.86 493.14 412.62 478.38 408.67C451.36 401.43 383.8 383.33 275.72 354.36L296.43 277.09C405.42 306.3 473.54 324.55 500.79 331.85C514.61 335.55 522.81 349.76 519.11 363.58C516.31 374.03 514.98 378.99 512.27 389.1Z" id="bawIw0LB2"></path><path d="M146.64 478.66C134.93 468.83 133.4 451.38 143.23 439.67C159.9 419.8 201.58 370.12 268.28 290.64L329.56 342.06C262.26 422.26 220.2 472.39 203.37 492.44C194.18 503.4 177.83 504.83 166.87 495.64C158.58 488.68 154.65 485.39 146.64 478.66Z" id="a2L5jn7LWK"></path></defs><g><g><g><use xlink:href="#a9rZr2uQ4h" opacity="1" fill="#002b9e" fill-opacity="1"></use><g><use xlink:href="#a9rZr2uQ4h" opacity="1" fill-opacity="0" stroke="#002b9e" stroke-width="1" stroke-opacity="1"></use></g></g><g><use xlink:href="#bawIw0LB2" opacity="1" fill="#002b9e" fill-opacity="1"></use><g><use xlink:href="#bawIw0LB2" opacity="1" fill-opacity="0" stroke="#002b9e" stroke-width="1" stroke-opacity="1"></use></g></g><g><use xlink:href="#a2L5jn7LWK" opacity="1" fill="#002b9e" fill-opacity="1"></use><g><use xlink:href="#a2L5jn7LWK" opacity="1" fill-opacity="0" stroke="#002b9e" stroke-width="1" stroke-opacity="1"></use></g></g></g></g></svg>