<?xml version="1.0" encoding="UTF-8" standalone="no"?>
<!DOCTYPE svg PUBLIC "-//W3C//DTD SVG 1.1//EN" "http://www.w3.org/Graphics/SVG/1.1/DTD/svg11.dtd">
<svg version="1.1" xmlns="http://www.w3.org/2000/svg" xmlns:xlink="http://www.w3.org/1999/xlink" preserveAspectRatio="xMidYMid meet" viewBox="0 0 640 640" width="640" height="640"><defs><path d="M355 315.32C355 345.85 330.36 370.64 300 370.64C269.64 370.64 245 345.85 245 315.32C245 284.79 269.64 260 300 260C330.36 260 355 284.79 355 315.32Z" id="gcpj0s73l"></path><path d="M491.98 331.28L560 223.25L439.89 180L456.4 227.95L356.63 262.3L375.75 317.8L475.51 283.45L491.98 331.28Z" id="aeCz8TsPf"></path><path d="M134.63 213.04L147.54 86.03L268.82 125.89L226.28 153.52L283.75 242L234.52 273.97L177.06 185.49L134.63 213.04Z" id="adrhykCa"></path><path d="M174.77 462.31L224.25 580L328.57 506.42L279.82 492.44L308.9 391.01L252.48 374.83L223.39 476.26L174.77 462.31Z" id="b1XI5IWG2Z"></path></defs><g><g><g><use xlink:href="#gcpj0s73l" opacity="1" fill="#000000" fill-opacity="0"></use><g><use xlink:href="#gcpj0s73l" opacity="1" fill-opacity="0" stroke="#002b9e" stroke-width="50" stroke-opacity="1"></use></g></g><g><use xlink:href="#aeCz8TsPf" opacity="1" fill="#002b9e" fill-opacity="1"></use><g><use xlink:href="#aeCz8TsPf" opacity="1" fill-opacity="0" stroke="#0056a7" stroke-width="0" stroke-opacity="1"></use></g></g><g><use xlink:href="#adrhykCa" opacity="1" fill="#002b9e" fill-opacity="1"></use><g><use xlink:href="#adrhykCa" opacity="1" fill-opacity="0" stroke="#740202" stroke-width="0" stroke-opacity="1"></use></g></g><g><use xlink:href="#b1XI5IWG2Z" opacity="1" fill="#002b9e" fill-opacity="1"></use><g><use xlink:href="#b1XI5IWG2Z" opacity="1" fill-opacity="0" stroke="#740202" stroke-width="0" stroke-opacity="1"></use></g></g></g></g></svg>