<?xml version="1.0" encoding="UTF-8" standalone="no"?>
<!DOCTYPE svg PUBLIC "-//W3C//DTD SVG 1.1//EN" "http://www.w3.org/Graphics/SVG/1.1/DTD/svg11.dtd">
<svg version="1.1" xmlns="http://www.w3.org/2000/svg" xmlns:xlink="http://www.w3.org/1999/xlink" preserveAspectRatio="xMidYMid meet" viewBox="0 0 640 640" width="640" height="640"><defs><path d="M344.79 545.94L423.13 514.34" id="a5VsPFBB24"></path><path d="M71.65 373.76L378.39 580.67L423.13 514.34" id="cmViHwCV7"></path><path d="" id="dARp1XVKb"></path><path d="M134.91 333.63C218.17 210.19 270.2 133.05 291.02 102.19C303.63 83.49 298.7 58.11 280 45.5C273.51 41.12 286.77 50.07 280 45.5C262.07 33.41 237.72 38.14 225.63 56.07C185.27 115.9 69.62 287.36 25.14 353.3C24.67 354.01 25.28 354.94 26.12 354.77C40.62 351.95 76.89 344.91 134.91 333.63Z" id="cCgXvHq6e"></path><path d="M25.86 355.34L136.92 333.76C260.35 417.02 337.5 469.05 368.36 489.87C387.05 502.48 391.99 527.85 379.37 546.55C374.99 553.04 383.94 539.78 379.37 546.55C367.28 564.48 342.93 569.22 325 557.12C285.11 530.22 185.4 462.96 25.86 355.34Z" id="akyN1wIqY"></path><path d="M166.02 287.51C279.23 265.51 349.99 251.75 378.29 246.25C402.01 241.64 424.98 257.13 429.59 280.85C430.97 287.96 427.92 272.26 429.59 280.85C433.41 300.5 420.57 319.53 400.92 323.35C371.63 329.04 298.42 343.27 181.28 366.04L134.38 334.41L166.02 287.51Z" id="b2zV0B2p67"></path></defs><g><g><g><g><use xlink:href="#a5VsPFBB24" opacity="1" fill-opacity="0" stroke="#002b9e" stroke-width="0" stroke-opacity="1"></use></g></g><g><g><use xlink:href="#cmViHwCV7" opacity="1" fill-opacity="0" stroke="#002b9e" stroke-width="0" stroke-opacity="1"></use></g></g><g><g><use xlink:href="#dARp1XVKb" opacity="1" fill-opacity="0" stroke="#002b9e" stroke-width="0" stroke-opacity="1"></use></g></g><g><use xlink:href="#cCgXvHq6e" opacity="1" fill="#ffffff" fill-opacity="1"></use><g><use xlink:href="#cCgXvHq6e" opacity="1" fill-opacity="0" stroke="#002b9e" stroke-width="0" stroke-opacity="1"></use></g></g><g><use xlink:href="#akyN1wIqY" opacity="1" fill="#ffffff" fill-opacity="1"></use><g><use xlink:href="#akyN1wIqY" opacity="1" fill-opacity="0" stroke="#002b9e" stroke-width="0" stroke-opacity="1"></use></g></g><g><use xlink:href="#b2zV0B2p67" opacity="1" fill="#ffffff" fill-opacity="1"></use><g><use xlink:href="#b2zV0B2p67" opacity="1" fill-opacity="0" stroke="#002b9e" stroke-width="0" stroke-opacity="1"></use></g></g></g></g></svg>