<?xml version="1.0" encoding="UTF-8" standalone="no"?>
<!DOCTYPE svg PUBLIC "-//W3C//DTD SVG 1.1//EN" "http://www.w3.org/Graphics/SVG/1.1/DTD/svg11.dtd">
<svg version="1.1" xmlns="http://www.w3.org/2000/svg" xmlns:xlink="http://www.w3.org/1999/xlink" preserveAspectRatio="xMidYMid meet" viewBox="0 0 640 640" width="640" height="640"><defs><path d="M355 315.32C355 345.85 330.36 370.64 300 370.64C269.64 370.64 245 345.85 245 315.32C245 284.79 269.64 260 300 260C330.36 260 355 284.79 355 315.32Z" id="a1822cxLVh"></path><path d="M523.89 315.64L591.92 207.61L471.8 164.36L488.31 212.31L388.55 246.66L407.66 302.16L507.42 267.81L523.89 315.64Z" id="ddTiHHBEE"></path><path d="M114.63 184.06L127.54 57.05L248.82 96.92L206.28 124.54L263.75 213.03L214.52 245L157.06 156.51L114.63 184.06Z" id="b1WMRfvgsI"></path><path d="M152.27 492.09L201.75 609.78L306.07 536.2L257.32 522.22L286.4 420.79L229.98 404.61L200.89 506.04L152.27 492.09Z" id="h5iFU2Vzi2"></path></defs><g><g><g><use xlink:href="#a1822cxLVh" opacity="1" fill="#412424" fill-opacity="0"></use><g><use xlink:href="#a1822cxLVh" opacity="1" fill-opacity="0" stroke="#ffffff" stroke-width="43" stroke-opacity="1"></use></g></g><g><use xlink:href="#ddTiHHBEE" opacity="1" fill="#ffffff" fill-opacity="1"></use><g><use xlink:href="#ddTiHHBEE" opacity="1" fill-opacity="0" stroke="#ffffff" stroke-width="0" stroke-opacity="1"></use></g></g><g><use xlink:href="#b1WMRfvgsI" opacity="1" fill="#ffffff" fill-opacity="1"></use><g><use xlink:href="#b1WMRfvgsI" opacity="1" fill-opacity="0" stroke="#740202" stroke-width="0" stroke-opacity="1"></use></g></g><g><use xlink:href="#h5iFU2Vzi2" opacity="1" fill="#ffffff" fill-opacity="1"></use><g><use xlink:href="#h5iFU2Vzi2" opacity="1" fill-opacity="0" stroke="#740202" stroke-width="0" stroke-opacity="1"></use></g></g></g></g></svg>