<?xml version="1.0" encoding="UTF-8" standalone="no"?>
<!DOCTYPE svg PUBLIC "-//W3C//DTD SVG 1.1//EN" "http://www.w3.org/Graphics/SVG/1.1/DTD/svg11.dtd">
<svg version="1.1" xmlns="http://www.w3.org/2000/svg" xmlns:xlink="http://www.w3.org/1999/xlink" preserveAspectRatio="xMidYMid meet" viewBox="0 0 640 640" width="640" height="640"><defs><path d="" id="a2EQepXy5B"></path><path d="M442.74 85.14C438.84 79.33 437.18 72.31 438.04 65.37C438.1 64.87 438.26 63.61 438.51 61.61L506.36 32.38L510 104.56C507.63 105.59 506.15 106.23 505.56 106.48C498.6 109.48 491 110.69 483.46 110C482.95 109.96 481.67 109.84 479.64 109.65L356.03 315.37L321.74 294.77C387.41 185.49 428.45 117.19 444.86 89.87C445.16 89.37 445.15 88.74 444.82 88.26C443.2 85.84 443.26 85.93 442.74 85.14Z" id="aiKnF4ioo"></path><path d="M474.93 520.14C481.74 519.63 488.51 521.58 493.99 525.65C494.39 525.95 495.4 526.7 497.01 527.89L487.7 600L424.06 568.32C424.39 565.76 424.59 564.15 424.68 563.51C425.62 556.17 428.38 549.19 432.7 543.19C433.02 542.75 433.81 541.66 435.07 539.91L321.51 335.05L356.49 315.65C416.82 424.48 454.52 492.5 469.6 519.7C469.88 520.2 470.41 520.49 470.97 520.44C473.88 520.22 473.96 520.22 474.93 520.14Z" id="h7mEXgaaaq"></path><path d="M90.36 335.38C87.53 341.41 82.62 346.22 76.53 348.93C76.08 349.13 74.95 349.64 73.13 350.44L16.75 306.35L74.59 267.05C76.63 268.65 77.92 269.65 78.43 270.05C84.12 274.49 88.61 280.28 91.51 286.89C91.74 287.41 92.31 288.71 93.22 290.78L321.74 294.77L321.04 334.77C199.65 332.65 123.77 331.32 93.43 330.79C92.88 330.78 92.37 331.1 92.14 331.6C90.91 334.22 90.79 334.46 90.36 335.38Z" id="aj5VukFfB"></path><path d="M321.74 294.77L183.34 292.11L191.48 278.57L260.09 164.39L399 166.2L321.74 294.77Z" id="a2Vy6h6fLX"></path><path d="M356.03 315.37L426.31 442.07L504.6 314.7L433.28 186.8L356.03 315.37Z" id="bA3YTfFCV"></path><path d="M321.58 333.87L180.01 331.64L247.93 456.45L392.24 461.89L321.58 333.87Z" id="bOZLkoeOB"></path></defs><g><g><g><g><use xlink:href="#a2EQepXy5B" opacity="1" fill-opacity="0" stroke="#000000" stroke-width="1" stroke-opacity="1"></use></g></g><g><use xlink:href="#aiKnF4ioo" opacity="1" fill="#699efe" fill-opacity="1"></use><g><use xlink:href="#aiKnF4ioo" opacity="1" fill-opacity="0" stroke="#000000" stroke-width="1" stroke-opacity="1"></use></g></g><g><use xlink:href="#h7mEXgaaaq" opacity="1" fill="#07bf00" fill-opacity="1"></use><g><use xlink:href="#h7mEXgaaaq" opacity="1" fill-opacity="0" stroke="#000000" stroke-width="1" stroke-opacity="1"></use></g></g><g><use xlink:href="#aj5VukFfB" opacity="1" fill="#fe6969" fill-opacity="1"></use><g><use xlink:href="#aj5VukFfB" opacity="1" fill-opacity="0" stroke="#000000" stroke-width="1" stroke-opacity="1"></use></g></g><g><use xlink:href="#a2Vy6h6fLX" opacity="1" fill="#30c000" fill-opacity="1"></use><g><use xlink:href="#a2Vy6h6fLX" opacity="1" fill-opacity="0" stroke="#000000" stroke-width="1" stroke-opacity="1"></use></g></g><g><use xlink:href="#bA3YTfFCV" opacity="1" fill="#fe6969" fill-opacity="1"></use><g><use xlink:href="#bA3YTfFCV" opacity="1" fill-opacity="0" stroke="#000000" stroke-width="1" stroke-opacity="1"></use></g></g><g><use xlink:href="#bOZLkoeOB" opacity="1" fill="#699efe" fill-opacity="1"></use><g><use xlink:href="#bOZLkoeOB" opacity="1" fill-opacity="0" stroke="#000000" stroke-width="1" stroke-opacity="1"></use></g></g></g></g></svg>