<?xml version="1.0" encoding="UTF-8" standalone="no"?>
<!DOCTYPE svg PUBLIC "-//W3C//DTD SVG 1.1//EN" "http://www.w3.org/Graphics/SVG/1.1/DTD/svg11.dtd">
<svg version="1.1" xmlns="http://www.w3.org/2000/svg" xmlns:xlink="http://www.w3.org/1999/xlink" preserveAspectRatio="xMidYMid meet" viewBox="0 0 640 640" width="640" height="640"><defs><path d="M230 450L350 450L350 330L230 330L230 450Z" id="artR63HFa"></path><path d="M188.51 219.42C180.27 216.11 173.75 209.55 170.47 201.3C170.4 201.12 170.23 200.69 169.96 200L209.96 140L250 199.87C249.87 200.24 249.79 200.47 249.76 200.57C246.77 209.31 240.01 216.25 231.35 219.48C231.16 219.55 230.7 219.72 229.96 220L229.96 450L189.96 450C189.96 327.79 189.96 251.41 189.96 220.86C189.96 220.34 189.64 219.87 189.16 219.68C186.45 218.59 188.8 219.54 188.51 219.42Z" id="d11VTcMntw"></path><path d="M459.21 448.54C462.82 440.48 469.55 434.23 477.86 431.23C478.31 431.07 479.45 430.66 481.26 430L541.26 470L481.26 510C480.87 509.88 480.63 509.81 480.53 509.78C471.22 506.96 463.53 500.36 459.32 491.59C459.22 491.38 458.96 490.85 458.56 490L230 490L230 450C351.41 450 427.3 450 457.65 450C458.2 450 458.7 449.68 458.93 449.18C460.11 446.53 459.08 448.84 459.21 448.54Z" id="a3hWpDFxeD"></path></defs><g><g><g><use xlink:href="#artR63HFa" opacity="1" fill="#699efe" fill-opacity="1"></use><g><use xlink:href="#artR63HFa" opacity="1" fill-opacity="0" stroke="#000000" stroke-width="1" stroke-opacity="1"></use></g></g><g><use xlink:href="#d11VTcMntw" opacity="1" fill="#07bf00" fill-opacity="1"></use><g><use xlink:href="#d11VTcMntw" opacity="1" fill-opacity="0" stroke="#000000" stroke-width="1" stroke-opacity="1"></use></g></g><g><use xlink:href="#a3hWpDFxeD" opacity="1" fill="#fe6969" fill-opacity="1"></use><g><use xlink:href="#a3hWpDFxeD" opacity="1" fill-opacity="0" stroke="#000000" stroke-width="1" stroke-opacity="1"></use></g></g></g></g></svg>