<?xml version="1.0" encoding="UTF-8" standalone="no"?>
<!DOCTYPE svg PUBLIC "-//W3C//DTD SVG 1.1//EN" "http://www.w3.org/Graphics/SVG/1.1/DTD/svg11.dtd">
<svg version="1.1" xmlns="http://www.w3.org/2000/svg" xmlns:xlink="http://www.w3.org/1999/xlink" preserveAspectRatio="xMidYMid meet" viewBox="0 0 640 640" width="640" height="640"><defs><path d="M472.72 480L520 410" id="bTPmxIjEc"></path><path d="M150 490L520 490L520 410" id="a9uMcTwQD"></path><path d="" id="dARp1XVKb"></path><path d="M180 420C180 271.11 180 178.05 180 140.83C180 118.28 161.72 100 139.17 100C131.33 100 147.33 100 139.17 100C117.54 100 100 117.54 100 139.17C100 211.33 100 418.15 100 497.69C100 498.54 101.03 498.97 101.63 498.37C112.08 487.92 138.2 461.8 180 420Z" id="cdkbmMZ7N"></path><path d="M100 500L180 420C328.89 420 421.95 420 459.17 420C481.72 420 500 438.28 500 460.83C500 468.67 500 452.67 500 460.83C500 482.46 482.46 500 460.83 500C412.72 500 292.44 500 100 500Z" id="lckxgbn8y"></path></defs><g><g><g><g><use xlink:href="#bTPmxIjEc" opacity="1" fill-opacity="0" stroke="#002b9e" stroke-width="0" stroke-opacity="1"></use></g></g><g><g><use xlink:href="#a9uMcTwQD" opacity="1" fill-opacity="0" stroke="#002b9e" stroke-width="0" stroke-opacity="1"></use></g></g><g><g><use xlink:href="#dARp1XVKb" opacity="1" fill-opacity="0" stroke="#002b9e" stroke-width="0" stroke-opacity="1"></use></g></g><g><use xlink:href="#cdkbmMZ7N" opacity="1" fill="#ffffff" fill-opacity="1"></use><g><use xlink:href="#cdkbmMZ7N" opacity="1" fill-opacity="0" stroke="#002b9e" stroke-width="0" stroke-opacity="1"></use></g></g><g><use xlink:href="#lckxgbn8y" opacity="1" fill="#ffffff" fill-opacity="1"></use><g><use xlink:href="#lckxgbn8y" opacity="1" fill-opacity="0" stroke="#002b9e" stroke-width="0" stroke-opacity="1"></use></g></g></g></g></svg>