<?xml version="1.0" encoding="UTF-8" standalone="no"?>
<!DOCTYPE svg PUBLIC "-//W3C//DTD SVG 1.1//EN" "http://www.w3.org/Graphics/SVG/1.1/DTD/svg11.dtd">
<svg version="1.1" xmlns="http://www.w3.org/2000/svg" xmlns:xlink="http://www.w3.org/1999/xlink" preserveAspectRatio="xMidYMid meet" viewBox="0 0 640 640" width="640" height="640"><defs><path d="M130 420L130 144.71L40 144.71L160 60L280 144.71L190 144.71L190 420L130 420Z" id="a4C2uGNSG1"></path><path d="M210 504.68C210 535.21 185.36 560 155 560C124.64 560 100 535.21 100 504.68C100 474.15 124.64 449.36 155 449.36C185.36 449.36 210 474.15 210 504.68Z" id="l1AIFPAQEQ"></path><path d="M240 470L515.29 470L515.29 380L600 500L515.29 620L515.29 530L240 530L240 470Z" id="aE6ts4WmA"></path></defs><g><g><g><use xlink:href="#a4C2uGNSG1" opacity="1" fill="#ffffff" fill-opacity="1"></use><g><use xlink:href="#a4C2uGNSG1" opacity="1" fill-opacity="0" stroke="#ffffff" stroke-width="2" stroke-opacity="1"></use></g></g><g><use xlink:href="#l1AIFPAQEQ" opacity="1" fill="#ffffff" fill-opacity="0"></use><g><use xlink:href="#l1AIFPAQEQ" opacity="1" fill-opacity="0" stroke="#ffffff" stroke-width="43" stroke-opacity="1"></use></g></g><g><use xlink:href="#aE6ts4WmA" opacity="1" fill="#ffffff" fill-opacity="1"></use><g><use xlink:href="#aE6ts4WmA" opacity="1" fill-opacity="0" stroke="#ffffff" stroke-width="2" stroke-opacity="1"></use></g></g></g></g></svg>