<?xml version="1.0" encoding="UTF-8" standalone="no"?>
<!DOCTYPE svg PUBLIC "-//W3C//DTD SVG 1.1//EN" "http://www.w3.org/Graphics/SVG/1.1/DTD/svg11.dtd">
<svg version="1.1" xmlns="http://www.w3.org/2000/svg" xmlns:xlink="http://www.w3.org/1999/xlink" preserveAspectRatio="xMidYMid meet" viewBox="0 0 640 640" width="640" height="640"><defs><path d="M537.45 60C549.91 60 560 70.09 560 82.55C560 126.04 560 206.03 560 242.54C560 274.28 534.28 300 502.54 300C418.03 300 222.35 300 137.94 300C105.94 300 80 274.06 80 242.06C80 205.65 80 129.1 80 86.37C80 71.81 91.81 60 106.37 60C197.1 60 445.96 60 537.45 60Z" id="c243ypBWKj"></path><path d="M80 60L552.26 60L552.26 149.63L80 149.63L80 60Z" id="a5uCSIDOw"></path><path d="M537.45 340C549.91 340 560 350.09 560 362.55C560 406.04 560 486.03 560 522.54C560 554.28 534.28 580 502.54 580C418.03 580 222.35 580 137.94 580C105.94 580 80 554.06 80 522.06C80 485.65 80 409.1 80 366.37C80 351.81 91.81 340 106.37 340C197.1 340 445.96 340 537.45 340Z" id="aWYnRY5ah"></path><path d="M80 337.04L560 337.04L560 417.68L80 417.68L80 337.04Z" id="bbFUJvSTv"></path></defs><g><g><g><g><use xlink:href="#c243ypBWKj" opacity="1" fill-opacity="0" stroke="#e3f51d" stroke-width="40" stroke-opacity="1"></use></g></g><g><use xlink:href="#a5uCSIDOw" opacity="1" fill="#e3f51d" fill-opacity="1"></use></g><g><g><use xlink:href="#aWYnRY5ah" opacity="1" fill-opacity="0" stroke="#f51dd6" stroke-width="40" stroke-opacity="1"></use></g></g><g><use xlink:href="#bbFUJvSTv" opacity="1" fill="#f51dd6" fill-opacity="1"></use></g></g></g></svg>